<svg width="577" height="156" viewBox="0 0 577 156" fill="none" xmlns="http://www.w3.org/2000/svg">
<rect x="52.1807" y="10.5479" width="25.465" height="103.358" rx="12.7325" transform="rotate(30 52.1807 10.5479)" fill="#FF546D"/>
<rect x="127.28" y="46.3711" width="26.544" height="109.837" rx="13.272" transform="rotate(30 127.28 46.3711)" fill="#00D4E6"/>
<path d="M19.9079 108.227C14.4956 106.849 8.11158 105.737 5.92293 100.599C4.34352 96.8906 4.4659 92.511 6.63624 88.7519C9.004 84.6508 13.23 82.2915 17.6366 82.1233C22.5209 81.937 27.335 83.9934 32.0855 85.1439C38.7431 86.7562 49.7409 90.435 64.2446 98.8087C78.7483 107.182 87.4331 114.867 92.1583 119.827C95.5299 123.366 99.7178 126.507 101.999 130.83C104.056 134.73 104.126 139.57 101.758 143.671C99.5879 147.43 95.8563 149.726 91.8554 150.212C86.3112 150.885 82.1563 145.913 78.2566 141.914C73.5659 137.105 65.208 130.015 50.9726 121.797C36.7372 113.578 26.4181 109.885 19.9079 108.227Z" fill="#6D86F5"/>
<path d="M74.7443 13.2501C70.8446 9.25199 66.6898 4.27915 61.1455 4.95287C57.1446 5.43906 53.413 7.73481 51.2427 11.494C48.8749 15.595 48.9446 20.4345 51.0023 24.3349C53.2831 28.6579 57.4711 31.7989 60.8426 35.3377C65.5678 40.2972 74.2527 47.9822 88.7563 56.3558C103.26 64.7295 114.258 68.4084 120.915 70.0207C125.666 71.1712 130.48 73.2276 135.364 73.0412C139.771 72.8731 143.997 70.5138 146.365 66.4127C148.535 62.6535 148.657 58.274 147.078 54.566C144.889 49.4277 138.505 48.3159 133.093 46.9377C126.583 45.28 116.264 41.5868 102.028 33.368C87.7929 25.1492 79.4351 18.0592 74.7443 13.2501Z" fill="#FFAA50"/>
<rect x="56.6738" y="2.7644" width="25.465" height="58.4198" rx="12.7325" transform="rotate(30 56.6738 2.7644)" fill="#FF546D"/>
<rect x="104.647" y="85.5725" width="26.544" height="64.572" rx="13.272" transform="rotate(30 104.647 85.5725)" fill="#00D4E6"/>
<path d="M230.2 44.144H240.856V71.696H274.456V44.144H285.112V110H274.456V80.912H240.856V110H230.2V44.144ZM320.025 111.152C311.897 111.152 305.849 109.008 301.881 104.72C297.913 100.432 295.929 93.776 295.929 84.752C295.929 75.728 297.913 69.072 301.881 64.784C305.849 60.496 311.897 58.352 320.025 58.352C327.385 58.352 332.889 60.368 336.537 64.4C340.185 68.368 342.009 74.704 342.009 83.408V87.248H306.105C306.361 92.688 307.577 96.72 309.753 99.344C311.993 101.904 315.449 103.184 320.121 103.184C323.769 103.184 326.713 102.32 328.953 100.592C331.193 98.864 332.313 96.208 332.313 92.624H342.009C342.009 98.64 339.961 103.248 335.865 106.448C331.833 109.584 326.553 111.152 320.025 111.152ZM331.737 79.76C331.737 70.8 327.833 66.32 320.025 66.32C315.673 66.32 312.409 67.408 310.233 69.584C308.057 71.696 306.745 75.088 306.297 79.76H331.737ZM357.817 127.472C354.681 127.472 352.217 127.152 350.425 126.512V119.984H354.649C360.473 119.984 364.377 116.656 366.361 110L346.777 59.504H357.145L366.553 84.272C367.833 87.536 369.465 92.56 371.449 99.344H371.929C373.721 92.944 375.193 87.92 376.345 84.272L384.217 59.504H394.105L377.401 107.408C375.097 113.808 372.505 118.736 369.625 122.192C366.745 125.712 362.809 127.472 357.817 127.472Z" fill="#FF546D"/>
<path d="M401.651 44.144H415.571V75.92L446.003 44.144H462.899L437.171 70.928L463.283 110H446.771L427.859 80.72L415.571 90.896V110H401.651V44.144ZM471.22 40.592H484.372V53.072H471.22V40.592ZM471.22 59.504H484.372V110H471.22V59.504ZM511.571 111.152C506.835 111.152 503.443 109.872 501.395 107.312C499.347 104.752 498.323 101.52 498.323 97.616V70.256H492.275V59.504H498.611L500.819 45.296H511.475V59.504H520.211V70.256H511.475V96.272C511.475 99.024 512.851 100.4 515.603 100.4H520.211V109.616C519.123 110 517.747 110.352 516.083 110.672C514.483 110.992 512.979 111.152 511.571 111.152ZM550.164 111.152C543.124 111.152 537.588 109.712 533.556 106.832C529.588 103.888 527.604 99.984 527.604 95.12L527.7 93.968H540.468V94.64C540.532 96.88 541.524 98.512 543.444 99.536C545.428 100.496 547.828 100.976 550.644 100.976C553.268 100.976 555.508 100.624 557.364 99.92C559.22 99.216 560.148 98.064 560.148 96.464C560.148 94.672 559.188 93.328 557.268 92.432C555.412 91.536 552.468 90.64 548.436 89.744C544.276 88.784 540.884 87.824 538.26 86.864C535.636 85.84 533.364 84.272 531.444 82.16C529.524 80.048 528.564 77.232 528.564 73.712C528.564 68.784 530.612 65.008 534.708 62.384C538.868 59.696 544.212 58.352 550.74 58.352C556.82 58.352 561.844 59.6 565.812 62.096C569.78 64.528 571.764 67.856 571.764 72.08L571.667 74.288H558.9V73.712C558.9 72.048 558.1 70.768 556.5 69.872C554.964 68.976 552.884 68.528 550.26 68.528C547.636 68.528 545.556 68.88 544.02 69.584C542.484 70.288 541.716 71.28 541.716 72.56C541.716 74.16 542.58 75.344 544.308 76.112C546.1 76.88 548.948 77.648 552.852 78.416C557.14 79.376 560.628 80.336 563.316 81.296C566.004 82.256 568.34 83.824 570.324 86C572.308 88.176 573.3 91.12 573.3 94.832C573.3 105.712 565.588 111.152 550.164 111.152Z" fill="#FFAA50"/>
</svg>
