<svg width="353" height="294" viewBox="0 0 353 294" fill="none" xmlns="http://www.w3.org/2000/svg">
<path d="M93.8477 210H64.4531V179.531H6.83594L5.46875 160.879L64.1602 67.8125H93.8477V155.801H109.57V179.531H93.8477V210ZM34.4727 155.801H64.4531V107.852L62.5977 110.977L34.4727 155.801ZM220.996 151.309C220.996 165.436 218.945 176.96 214.844 185.879C210.807 194.798 205.176 201.374 197.949 205.605C190.723 209.837 182.324 211.953 172.754 211.953C163.118 211.953 154.655 209.837 147.363 205.605C140.072 201.374 134.375 194.798 130.273 185.879C126.237 176.96 124.219 165.436 124.219 151.309V126.309C124.219 112.181 126.237 100.69 130.273 91.8359C134.31 82.9167 139.941 76.3737 147.168 72.207C154.46 67.9753 162.923 65.8594 172.559 65.8594C182.129 65.8594 190.527 67.9753 197.754 72.207C205.046 76.3737 210.742 82.9167 214.844 91.8359C218.945 100.69 220.996 112.181 220.996 126.309V151.309ZM191.406 122.207C191.406 110.033 189.746 101.569 186.426 96.8164C183.105 92.0638 178.483 89.6875 172.559 89.6875C166.634 89.6875 162.012 92.0638 158.691 96.8164C155.371 101.569 153.711 110.033 153.711 122.207V155.215C153.711 167.52 155.371 176.113 158.691 180.996C162.077 185.814 166.764 188.223 172.754 188.223C178.678 188.223 183.268 185.814 186.523 180.996C189.779 176.113 191.406 167.52 191.406 155.215V122.207ZM323.926 210H294.531V179.531H236.914L235.547 160.879L294.238 67.8125H323.926V155.801H339.648V179.531H323.926V210ZM264.551 155.801H294.531V107.852L292.676 110.977L264.551 155.801Z" fill="#FF7600"/>
<path d="M93.8477 210V211H94.8477V210H93.8477ZM64.4531 210H63.4531V211H64.4531V210ZM64.4531 179.531H65.4531V178.531H64.4531V179.531ZM6.83594 179.531L5.83861 179.604L5.90655 180.531H6.83594V179.531ZM5.46875 160.879L4.6229 160.345L4.44737 160.624L4.47143 160.952L5.46875 160.879ZM64.1602 67.8125V66.8125H63.6085L63.3143 67.2791L64.1602 67.8125ZM93.8477 67.8125H94.8477V66.8125H93.8477V67.8125ZM93.8477 155.801H92.8477V156.801H93.8477V155.801ZM109.57 155.801H110.57V154.801H109.57V155.801ZM109.57 179.531V180.531H110.57V179.531H109.57ZM93.8477 179.531V178.531H92.8477V179.531H93.8477ZM34.4727 155.801L33.6256 155.269L32.6647 156.801H34.4727V155.801ZM64.4531 155.801V156.801H65.4531V155.801H64.4531ZM64.4531 107.852H65.4531V104.209L63.5933 107.341L64.4531 107.852ZM62.5977 110.977L63.4447 111.508L63.4512 111.498L63.4575 111.487L62.5977 110.977ZM93.8477 209H64.4531V211H93.8477V209ZM65.4531 210V179.531H63.4531V210H65.4531ZM64.4531 178.531H6.83594V180.531H64.4531V178.531ZM7.83326 179.458L6.46607 160.806L4.47143 160.952L5.83861 179.604L7.83326 179.458ZM6.3146 161.412L65.006 68.3459L63.3143 67.2791L4.6229 160.345L6.3146 161.412ZM64.1602 68.8125H93.8477V66.8125H64.1602V68.8125ZM92.8477 67.8125V155.801H94.8477V67.8125H92.8477ZM93.8477 156.801H109.57V154.801H93.8477V156.801ZM108.57 155.801V179.531H110.57V155.801H108.57ZM109.57 178.531H93.8477V180.531H109.57V178.531ZM92.8477 179.531V210H94.8477V179.531H92.8477ZM34.4727 156.801H64.4531V154.801H34.4727V156.801ZM65.4531 155.801V107.852H63.4531V155.801H65.4531ZM63.5933 107.341L61.7378 110.466L63.4575 111.487L65.313 108.362L63.5933 107.341ZM61.7506 110.445L33.6256 155.269L35.3197 156.332L63.4447 111.508L61.7506 110.445ZM214.844 185.879L213.935 185.461L213.933 185.467L214.844 185.879ZM130.273 185.879L129.362 186.291L129.365 186.297L130.273 185.879ZM130.273 91.8359L131.183 92.2507L131.184 92.2482L130.273 91.8359ZM147.168 72.207L147.667 73.0734L147.67 73.0719L147.168 72.207ZM197.754 72.207L197.249 73.07L197.258 73.0753L197.754 72.207ZM214.844 91.8359L213.935 92.2537L213.936 92.2563L214.844 91.8359ZM158.691 180.996L157.864 181.558L157.869 181.565L157.873 181.571L158.691 180.996ZM186.523 180.996L187.352 181.556L187.355 181.551L186.523 180.996ZM219.996 151.309C219.996 165.351 217.956 176.717 213.935 185.461L215.752 186.297C219.935 177.202 221.996 165.522 221.996 151.309H219.996ZM213.933 185.467C209.967 194.23 204.463 200.632 197.444 204.743L198.455 206.468C205.888 202.115 211.648 195.366 215.755 186.291L213.933 185.467ZM197.444 204.743C190.391 208.872 182.172 210.953 172.754 210.953V212.953C182.476 212.953 191.054 210.802 198.455 206.468L197.444 204.743ZM172.754 210.953C163.269 210.953 154.984 208.872 147.865 204.741L146.861 206.47C154.326 210.803 162.968 212.953 172.754 212.953V210.953ZM147.865 204.741C140.78 200.629 135.212 194.225 131.182 185.461L129.365 186.297C133.538 195.372 139.363 202.119 146.861 206.47L147.865 204.741ZM131.184 185.467C127.227 176.721 125.219 165.352 125.219 151.309H123.219C123.219 165.52 125.247 177.198 129.362 186.291L131.184 185.467ZM125.219 151.309V126.309H123.219V151.309H125.219ZM125.219 126.309C125.219 112.265 127.227 100.93 131.183 92.2507L129.364 91.4211C125.247 100.451 123.219 112.097 123.219 126.309H125.219ZM131.184 92.2482C135.15 83.4855 140.652 77.1182 147.667 73.0733L146.668 71.3407C139.231 75.6292 133.47 82.3478 129.362 91.4236L131.184 92.2482ZM147.67 73.0719C154.788 68.9407 163.074 66.8594 172.559 66.8594V64.8594C162.772 64.8594 154.131 67.0098 146.666 71.3421L147.67 73.0719ZM172.559 66.8594C181.977 66.8594 190.196 68.9401 197.249 73.07L198.259 71.3441C190.859 67.0104 182.281 64.8594 172.559 64.8594V66.8594ZM197.258 73.0753C204.339 77.1218 209.906 83.4909 213.935 92.2537L215.752 91.4181C211.579 82.3424 205.752 75.6256 198.25 71.3388L197.258 73.0753ZM213.936 92.2563C217.956 100.933 219.996 112.266 219.996 126.309H221.996C221.996 112.096 219.935 100.447 215.751 91.4156L213.936 92.2563ZM219.996 126.309V151.309H221.996V126.309H219.996ZM192.406 122.207C192.406 110.01 190.756 101.269 187.246 96.2437L185.606 97.3891C188.736 101.869 190.406 110.055 190.406 122.207H192.406ZM187.246 96.2437C183.733 91.2164 178.801 88.6875 172.559 88.6875V90.6875C178.165 90.6875 182.478 92.9112 185.606 97.3891L187.246 96.2437ZM172.559 88.6875C166.316 88.6875 161.384 91.2164 157.872 96.2437L159.511 97.3891C162.64 92.9112 166.952 90.6875 172.559 90.6875V88.6875ZM157.872 96.2437C154.361 101.269 152.711 110.01 152.711 122.207H154.711C154.711 110.055 156.381 101.869 159.511 97.3891L157.872 96.2437ZM152.711 122.207V155.215H154.711V122.207H152.711ZM152.711 155.215C152.711 167.544 154.362 176.407 157.864 181.558L159.518 180.434C156.38 175.819 154.711 167.495 154.711 155.215H152.711ZM157.873 181.571C161.45 186.661 166.445 189.223 172.754 189.223V187.223C167.083 187.223 162.704 184.967 159.51 180.421L157.873 181.571ZM172.754 189.223C179.003 189.223 183.907 186.655 187.352 181.556L185.695 180.436C182.63 184.973 178.354 187.223 172.754 187.223V189.223ZM187.355 181.551C190.788 176.402 192.406 167.542 192.406 155.215H190.406C190.406 167.497 188.769 175.825 185.691 180.441L187.355 181.551ZM192.406 155.215V122.207H190.406V155.215H192.406ZM323.926 210V211H324.926V210H323.926ZM294.531 210H293.531V211H294.531V210ZM294.531 179.531H295.531V178.531H294.531V179.531ZM236.914 179.531L235.917 179.604L235.985 180.531H236.914V179.531ZM235.547 160.879L234.701 160.345L234.525 160.624L234.55 160.952L235.547 160.879ZM294.238 67.8125V66.8125H293.687L293.392 67.2791L294.238 67.8125ZM323.926 67.8125H324.926V66.8125H323.926V67.8125ZM323.926 155.801H322.926V156.801H323.926V155.801ZM339.648 155.801H340.648V154.801H339.648V155.801ZM339.648 179.531V180.531H340.648V179.531H339.648ZM323.926 179.531V178.531H322.926V179.531H323.926ZM264.551 155.801L263.704 155.269L262.743 156.801H264.551V155.801ZM294.531 155.801V156.801H295.531V155.801H294.531ZM294.531 107.852H295.531V104.209L293.671 107.341L294.531 107.852ZM292.676 110.977L293.523 111.508L293.529 111.498L293.536 111.487L292.676 110.977ZM323.926 209H294.531V211H323.926V209ZM295.531 210V179.531H293.531V210H295.531ZM294.531 178.531H236.914V180.531H294.531V178.531ZM237.911 179.458L236.544 160.806L234.55 160.952L235.917 179.604L237.911 179.458ZM236.393 161.412L295.084 68.3459L293.392 67.2791L234.701 160.345L236.393 161.412ZM294.238 68.8125H323.926V66.8125H294.238V68.8125ZM322.926 67.8125V155.801H324.926V67.8125H322.926ZM323.926 156.801H339.648V154.801H323.926V156.801ZM338.648 155.801V179.531H340.648V155.801H338.648ZM339.648 178.531H323.926V180.531H339.648V178.531ZM322.926 179.531V210H324.926V179.531H322.926ZM264.551 156.801H294.531V154.801H264.551V156.801ZM295.531 155.801V107.852H293.531V155.801H295.531ZM293.671 107.341L291.816 110.466L293.536 111.487L295.391 108.362L293.671 107.341ZM291.829 110.445L263.704 155.269L265.398 156.332L293.523 111.508L291.829 110.445Z" fill="#FF7600"/>
<path d="M100.848 216H71.4531V185.531H13.8359L12.4688 166.879L71.1602 73.8125H100.848V161.801H116.57V185.531H100.848V216ZM41.4727 161.801H71.4531V113.852L69.5977 116.977L41.4727 161.801ZM227.996 157.309C227.996 171.436 225.945 182.96 221.844 191.879C217.807 200.798 212.176 207.374 204.949 211.605C197.723 215.837 189.324 217.953 179.754 217.953C170.118 217.953 161.655 215.837 154.363 211.605C147.072 207.374 141.375 200.798 137.273 191.879C133.237 182.96 131.219 171.436 131.219 157.309V132.309C131.219 118.181 133.237 106.69 137.273 97.8359C141.31 88.9167 146.941 82.3737 154.168 78.207C161.46 73.9753 169.923 71.8594 179.559 71.8594C189.129 71.8594 197.527 73.9753 204.754 78.207C212.046 82.3737 217.742 88.9167 221.844 97.8359C225.945 106.69 227.996 118.181 227.996 132.309V157.309ZM198.406 128.207C198.406 116.033 196.746 107.569 193.426 102.816C190.105 98.0638 185.483 95.6875 179.559 95.6875C173.634 95.6875 169.012 98.0638 165.691 102.816C162.371 107.569 160.711 116.033 160.711 128.207V161.215C160.711 173.52 162.371 182.113 165.691 186.996C169.077 191.814 173.764 194.223 179.754 194.223C185.678 194.223 190.268 191.814 193.523 186.996C196.779 182.113 198.406 173.52 198.406 161.215V128.207ZM330.926 216H301.531V185.531H243.914L242.547 166.879L301.238 73.8125H330.926V161.801H346.648V185.531H330.926V216ZM271.551 161.801H301.531V113.852L299.676 116.977L271.551 161.801Z" fill="white"/>
<path d="M100.848 216V217H101.848V216H100.848ZM71.4531 216H70.4531V217H71.4531V216ZM71.4531 185.531H72.4531V184.531H71.4531V185.531ZM13.8359 185.531L12.8386 185.604L12.9066 186.531H13.8359V185.531ZM12.4688 166.879L11.6229 166.345L11.4474 166.624L11.4714 166.952L12.4688 166.879ZM71.1602 73.8125V72.8125H70.6085L70.3143 73.2791L71.1602 73.8125ZM100.848 73.8125H101.848V72.8125H100.848V73.8125ZM100.848 161.801H99.8477V162.801H100.848V161.801ZM116.57 161.801H117.57V160.801H116.57V161.801ZM116.57 185.531V186.531H117.57V185.531H116.57ZM100.848 185.531V184.531H99.8477V185.531H100.848ZM41.4727 161.801L40.6256 161.269L39.6647 162.801H41.4727V161.801ZM71.4531 161.801V162.801H72.4531V161.801H71.4531ZM71.4531 113.852H72.4531V110.209L70.5933 113.341L71.4531 113.852ZM69.5977 116.977L70.4447 117.508L70.4512 117.498L70.4575 117.487L69.5977 116.977ZM100.848 215H71.4531V217H100.848V215ZM72.4531 216V185.531H70.4531V216H72.4531ZM71.4531 184.531H13.8359V186.531H71.4531V184.531ZM14.8333 185.458L13.4661 166.806L11.4714 166.952L12.8386 185.604L14.8333 185.458ZM13.3146 167.412L72.006 74.3459L70.3143 73.2791L11.6229 166.345L13.3146 167.412ZM71.1602 74.8125H100.848V72.8125H71.1602V74.8125ZM99.8477 73.8125V161.801H101.848V73.8125H99.8477ZM100.848 162.801H116.57V160.801H100.848V162.801ZM115.57 161.801V185.531H117.57V161.801H115.57ZM116.57 184.531H100.848V186.531H116.57V184.531ZM99.8477 185.531V216H101.848V185.531H99.8477ZM41.4727 162.801H71.4531V160.801H41.4727V162.801ZM72.4531 161.801V113.852H70.4531V161.801H72.4531ZM70.5933 113.341L68.7378 116.466L70.4575 117.487L72.313 114.362L70.5933 113.341ZM68.7506 116.445L40.6256 161.269L42.3197 162.332L70.4447 117.508L68.7506 116.445ZM221.844 191.879L220.935 191.461L220.933 191.467L221.844 191.879ZM137.273 191.879L136.362 192.291L136.365 192.297L137.273 191.879ZM137.273 97.8359L138.183 98.2507L138.184 98.2482L137.273 97.8359ZM154.168 78.207L154.667 79.0734L154.67 79.0719L154.168 78.207ZM204.754 78.207L204.249 79.07L204.258 79.0753L204.754 78.207ZM221.844 97.8359L220.935 98.2537L220.936 98.2563L221.844 97.8359ZM165.691 186.996L164.864 187.558L164.869 187.565L164.873 187.571L165.691 186.996ZM193.523 186.996L194.352 187.556L194.355 187.551L193.523 186.996ZM226.996 157.309C226.996 171.351 224.956 182.717 220.935 191.461L222.752 192.297C226.935 183.202 228.996 171.522 228.996 157.309H226.996ZM220.933 191.467C216.967 200.23 211.463 206.632 204.444 210.743L205.455 212.468C212.888 208.115 218.648 201.366 222.755 192.291L220.933 191.467ZM204.444 210.743C197.391 214.872 189.172 216.953 179.754 216.953V218.953C189.476 218.953 198.054 216.802 205.455 212.468L204.444 210.743ZM179.754 216.953C170.269 216.953 161.984 214.872 154.865 210.741L153.861 212.47C161.326 216.803 169.968 218.953 179.754 218.953V216.953ZM154.865 210.741C147.78 206.629 142.212 200.225 138.182 191.461L136.365 192.297C140.538 201.372 146.363 208.119 153.861 212.47L154.865 210.741ZM138.184 191.467C134.227 182.721 132.219 171.352 132.219 157.309H130.219C130.219 171.52 132.247 183.198 136.362 192.291L138.184 191.467ZM132.219 157.309V132.309H130.219V157.309H132.219ZM132.219 132.309C132.219 118.265 134.227 106.93 138.183 98.2507L136.364 97.4211C132.247 106.451 130.219 118.097 130.219 132.309H132.219ZM138.184 98.2482C142.15 89.4855 147.652 83.1182 154.667 79.0733L153.668 77.3407C146.231 81.6292 140.47 88.3478 136.362 97.4236L138.184 98.2482ZM154.67 79.0719C161.788 74.9407 170.074 72.8594 179.559 72.8594V70.8594C169.772 70.8594 161.131 73.0098 153.666 77.3421L154.67 79.0719ZM179.559 72.8594C188.977 72.8594 197.196 74.9401 204.249 79.07L205.259 77.3441C197.859 73.0104 189.281 70.8594 179.559 70.8594V72.8594ZM204.258 79.0753C211.339 83.1218 216.906 89.4909 220.935 98.2537L222.752 97.4181C218.579 88.3424 212.752 81.6256 205.25 77.3388L204.258 79.0753ZM220.936 98.2563C224.956 106.933 226.996 118.266 226.996 132.309H228.996C228.996 118.096 226.935 106.447 222.751 97.4156L220.936 98.2563ZM226.996 132.309V157.309H228.996V132.309H226.996ZM199.406 128.207C199.406 116.01 197.756 107.269 194.246 102.244L192.606 103.389C195.736 107.869 197.406 116.055 197.406 128.207H199.406ZM194.246 102.244C190.733 97.2164 185.801 94.6875 179.559 94.6875V96.6875C185.165 96.6875 189.478 98.9112 192.606 103.389L194.246 102.244ZM179.559 94.6875C173.316 94.6875 168.384 97.2164 164.872 102.244L166.511 103.389C169.64 98.9112 173.952 96.6875 179.559 96.6875V94.6875ZM164.872 102.244C161.361 107.269 159.711 116.01 159.711 128.207H161.711C161.711 116.055 163.381 107.869 166.511 103.389L164.872 102.244ZM159.711 128.207V161.215H161.711V128.207H159.711ZM159.711 161.215C159.711 173.544 161.362 182.407 164.864 187.558L166.518 186.434C163.38 181.819 161.711 173.495 161.711 161.215H159.711ZM164.873 187.571C168.45 192.661 173.445 195.223 179.754 195.223V193.223C174.083 193.223 169.704 190.967 166.51 186.421L164.873 187.571ZM179.754 195.223C186.003 195.223 190.907 192.655 194.352 187.556L192.695 186.436C189.63 190.973 185.354 193.223 179.754 193.223V195.223ZM194.355 187.551C197.788 182.402 199.406 173.542 199.406 161.215H197.406C197.406 173.497 195.769 181.825 192.691 186.441L194.355 187.551ZM199.406 161.215V128.207H197.406V161.215H199.406ZM330.926 216V217H331.926V216H330.926ZM301.531 216H300.531V217H301.531V216ZM301.531 185.531H302.531V184.531H301.531V185.531ZM243.914 185.531L242.917 185.604L242.985 186.531H243.914V185.531ZM242.547 166.879L241.701 166.345L241.525 166.624L241.55 166.952L242.547 166.879ZM301.238 73.8125V72.8125H300.687L300.392 73.2791L301.238 73.8125ZM330.926 73.8125H331.926V72.8125H330.926V73.8125ZM330.926 161.801H329.926V162.801H330.926V161.801ZM346.648 161.801H347.648V160.801H346.648V161.801ZM346.648 185.531V186.531H347.648V185.531H346.648ZM330.926 185.531V184.531H329.926V185.531H330.926ZM271.551 161.801L270.704 161.269L269.743 162.801H271.551V161.801ZM301.531 161.801V162.801H302.531V161.801H301.531ZM301.531 113.852H302.531V110.209L300.671 113.341L301.531 113.852ZM299.676 116.977L300.523 117.508L300.529 117.498L300.536 117.487L299.676 116.977ZM330.926 215H301.531V217H330.926V215ZM302.531 216V185.531H300.531V216H302.531ZM301.531 184.531H243.914V186.531H301.531V184.531ZM244.911 185.458L243.544 166.806L241.55 166.952L242.917 185.604L244.911 185.458ZM243.393 167.412L302.084 74.3459L300.392 73.2791L241.701 166.345L243.393 167.412ZM301.238 74.8125H330.926V72.8125H301.238V74.8125ZM329.926 73.8125V161.801H331.926V73.8125H329.926ZM330.926 162.801H346.648V160.801H330.926V162.801ZM345.648 161.801V185.531H347.648V161.801H345.648ZM346.648 184.531H330.926V186.531H346.648V184.531ZM329.926 185.531V216H331.926V185.531H329.926ZM271.551 162.801H301.531V160.801H271.551V162.801ZM302.531 161.801V113.852H300.531V161.801H302.531ZM300.671 113.341L298.816 116.466L300.536 117.487L302.391 114.362L300.671 113.341ZM298.829 116.445L270.704 161.269L272.398 162.332L300.523 117.508L298.829 116.445Z" fill="#FF7600"/>
</svg>
