<svg width="110" height="110" viewBox="0 0 110 110" fill="none" xmlns="http://www.w3.org/2000/svg">
<circle opacity="0.1" cx="55" cy="55" r="55" fill="#2296FF"/>
<path d="M27.292 32.3958C27.292 31.8157 27.5225 31.2593 27.9327 30.849C28.3429 30.4388 28.8993 30.2083 29.4795 30.2083H31.107C33.8778 30.2083 35.5403 32.0721 36.4882 33.8046C37.1212 34.9596 37.5791 36.2983 37.9378 37.5117C38.0349 37.504 38.1322 37.5001 38.2295 37.5H74.682C77.1028 37.5 78.8528 39.8158 78.1878 42.1463L72.8562 60.8392C72.3781 62.5158 71.3668 63.9911 69.9753 65.0415C68.5838 66.092 66.888 66.6605 65.1445 66.6608H47.7962C46.0388 66.6609 44.3301 66.0839 42.9327 65.0184C41.5352 63.9529 40.5264 62.458 40.0612 60.7633L37.8445 52.6783L34.1695 40.2883L34.1666 40.265C33.7116 38.6113 33.2857 37.0625 32.6499 35.9075C32.0403 34.7846 31.5503 34.5833 31.1099 34.5833H29.4795C28.8993 34.5833 28.3429 34.3529 27.9327 33.9426C27.5225 33.5324 27.292 32.976 27.292 32.3958Z" fill="#2296FF"/>
<path d="M46.2503 81.25C47.7974 81.25 49.2812 80.6354 50.3751 79.5415C51.4691 78.4475 52.0837 76.9638 52.0837 75.4167C52.0837 73.8696 51.4691 72.3859 50.3751 71.2919C49.2812 70.1979 47.7974 69.5833 46.2503 69.5833C44.7032 69.5833 43.2195 70.1979 42.1255 71.2919C41.0316 72.3859 40.417 73.8696 40.417 75.4167C40.417 76.9638 41.0316 78.4475 42.1255 79.5415C43.2195 80.6354 44.7032 81.25 46.2503 81.25Z" fill="#2296FF"/>
<path d="M66.6663 81.25C68.2134 81.25 69.6972 80.6354 70.7911 79.5415C71.8851 78.4475 72.4997 76.9638 72.4997 75.4167C72.4997 73.8696 71.8851 72.3859 70.7911 71.2919C69.6972 70.1979 68.2134 69.5833 66.6663 69.5833C65.1192 69.5833 63.6355 70.1979 62.5416 71.2919C61.4476 72.3859 60.833 73.8696 60.833 75.4167C60.833 76.9638 61.4476 78.4475 62.5416 79.5415C63.6355 80.6354 65.1192 81.25 66.6663 81.25Z" fill="#2296FF"/>
<path d="M61.568 45.3187C61.8321 45.0673 62.1836 44.9283 62.5483 44.931C62.913 44.9338 63.2623 45.0781 63.5226 45.3335C63.7829 45.5889 63.9338 45.9355 63.9434 46.3001C63.953 46.6646 63.8207 47.0187 63.5743 47.2875L56.093 56.6437C55.9644 56.7823 55.8091 56.8935 55.6365 56.9707C55.4639 57.0478 55.2775 57.0894 55.0885 57.0929C54.8994 57.0964 54.7116 57.0618 54.5363 56.991C54.361 56.9203 54.2017 56.8149 54.068 56.6812L49.1068 51.72C48.9686 51.5912 48.8578 51.436 48.7809 51.2635C48.7041 51.091 48.6627 50.9048 48.6594 50.716C48.6561 50.5271 48.6908 50.3396 48.7615 50.1645C48.8323 49.9894 48.9375 49.8303 49.0711 49.6968C49.2046 49.5632 49.3637 49.458 49.5388 49.3872C49.7139 49.3165 49.9014 49.2818 50.0902 49.2851C50.2791 49.2884 50.4653 49.3298 50.6378 49.4066C50.8103 49.4835 50.9655 49.5943 51.0943 49.7325L55.0205 53.6568L61.5324 45.36C61.5441 45.3455 61.5566 45.3318 61.5699 45.3187H61.568Z" fill="white"/>
</svg>
