<svg width="60" height="60" viewBox="0 0 60 60" fill="none" xmlns="http://www.w3.org/2000/svg">
<rect width="60" height="60" rx="12" fill="url(#paint0_linear)"/>
<path fill-rule="evenodd" clip-rule="evenodd" d="M31.4394 17.3333C31.4394 15.5844 32.8572 14.1666 34.6061 14.1666H42.6667C44.4156 14.1666 45.8333 15.5844 45.8333 17.3333V25.3939C45.8333 27.1428 44.4156 28.5606 42.6667 28.5606H34.6061C32.8572 28.5606 31.4394 27.1428 31.4394 25.3939V17.3333ZM17.3333 14.1666C15.5844 14.1666 14.1667 15.5844 14.1667 17.3333V25.3939C14.1667 27.1428 15.5844 28.5606 17.3333 28.5606H25.3939C27.1428 28.5606 28.5606 27.1428 28.5606 25.3939V17.3333C28.5606 15.5844 27.1428 14.1666 25.3939 14.1666H17.3333ZM17.3333 31.4394C15.5844 31.4394 14.1667 32.8572 14.1667 34.6061V42.6667C14.1667 44.4156 15.5844 45.8333 17.3333 45.8333H25.3939C27.1428 45.8333 28.5606 44.4156 28.5606 42.6667V34.6061C28.5606 32.8572 27.1428 31.4394 25.3939 31.4394H17.3333ZM34.6061 31.4394C32.8572 31.4394 31.4394 32.8572 31.4394 34.6061V42.6667C31.4394 44.4156 32.8572 45.8333 34.6061 45.8333H42.6667C44.4156 45.8333 45.8333 44.4156 45.8333 42.6667V34.6061C45.8333 32.8572 44.4156 31.4394 42.6667 31.4394H34.6061Z" fill="white"/>
<defs>
<linearGradient id="paint0_linear" x1="0" y1="0" x2="60" y2="60" gradientUnits="userSpaceOnUse">
<stop stop-color="#55E090"/>
<stop offset="1" stop-color="#26BF67"/>
</linearGradient>
</defs>
</svg>
