<svg width="110" height="110" viewBox="0 0 110 110" fill="none" xmlns="http://www.w3.org/2000/svg">
<circle opacity="0.1" cx="55" cy="55" r="55" fill="#2296FF"/>
<path fill-rule="evenodd" clip-rule="evenodd" d="M37.4993 31.6667C34.2777 31.6667 31.666 34.2784 31.666 37.5V72.5C31.666 75.7217 34.2777 78.3334 37.4993 78.3334H75.416C78.6377 78.3334 81.2494 75.7217 81.2494 72.5V69.5834H57.9167C56.3058 69.5834 55 68.2775 55 66.6667V43.3333C55 41.7225 56.3058 40.4167 57.9167 40.4167H81.2494V37.5C81.2494 34.2784 78.6377 31.6667 75.416 31.6667H37.4993Z" fill="#2296FF"/>
<rect x="57.916" y="43.3333" width="26.25" height="23.3333" rx="2.91667" fill="#2296FF"/>
<circle cx="39" cy="39" r="14" fill="#E9F4FF" stroke="#E9F4FF" stroke-width="2"/>
<path d="M52.084 38.9583C52.084 42.4393 50.7012 45.7777 48.2398 48.2391C45.7783 50.7005 42.44 52.0833 38.959 52.0833C35.478 52.0833 32.1396 50.7005 29.6782 48.2391C27.2168 45.7777 25.834 42.4393 25.834 38.9583C25.834 35.4773 27.2168 32.139 29.6782 29.6775C32.1396 27.2161 35.478 25.8333 38.959 25.8333C42.44 25.8333 45.7783 27.2161 48.2398 29.6775C50.7012 32.139 52.084 35.4773 52.084 38.9583ZM45.5707 33.9872C45.4535 33.8704 45.314 33.7785 45.1604 33.7169C45.0069 33.6553 44.8425 33.6252 44.6771 33.6286C44.5117 33.632 44.3487 33.6687 44.1977 33.7365C44.0468 33.8043 43.9112 33.9019 43.7988 34.0233L38.1009 41.2831L34.6671 37.8476C34.4339 37.6303 34.1253 37.5119 33.8066 37.5176C33.4878 37.5232 33.1836 37.6523 32.9582 37.8778C32.7328 38.1032 32.6036 38.4074 32.598 38.7261C32.5924 39.0449 32.7107 39.3534 32.928 39.5867L37.2691 43.9294C37.3861 44.0461 37.5253 44.1381 37.6786 44.1999C37.8319 44.2616 37.996 44.2919 38.1612 44.2888C38.3264 44.2857 38.4893 44.2494 38.6402 44.182C38.7911 44.1147 38.9268 44.0176 39.0394 43.8966L45.5888 35.7099C45.812 35.4777 45.9354 35.1673 45.9323 34.8452C45.9292 34.5231 45.8 34.2151 45.5723 33.9872H45.5707Z" fill="#2296FF"/>
<circle cx="71" cy="55" r="3" fill="#E9F4FF"/>
</svg>
