<svg width="60" height="60" viewBox="0 0 60 60" fill="none" xmlns="http://www.w3.org/2000/svg">
<rect width="60" height="60" rx="14" fill="#FF7600" fill-opacity="0.1"/>
<path d="M42.6162 13H25.8051C23.9338 13 22.4196 14.5283 22.4196 16.417V25.9999L14.4999 33.8913C14.2626 34.1282 14.1004 34.4309 14.0338 34.7609C13.9673 35.091 13.9994 35.4336 14.1261 35.7453C14.2527 36.0569 14.4683 36.3236 14.7454 36.5113C15.0225 36.6991 15.3486 36.7996 15.6823 36.8V45.3C15.6823 45.7509 15.8598 46.1833 16.1756 46.5021C16.4915 46.8209 16.9199 47 17.3666 47H44.3157C44.7624 47 45.1908 46.8209 45.5067 46.5021C45.8225 46.1833 46 45.7509 46 45.3V16.4153C46 14.5283 44.4875 13 42.6162 13ZM29.0255 35.2887V43.6H19.0509V34.1344L24.082 29.1211L29.0255 34.2262V35.2887V35.2887ZM32.5255 24.9H29.1568V21.5H32.5255V24.9ZM39.2627 38.5H35.8941V35.1H39.2627V38.5ZM39.2627 31.7H35.8941V28.3H39.2627V31.7ZM39.2627 24.9H35.8941V21.5H39.2627V24.9Z" fill="#FF7600"/>
<path d="M21.668 35H25.0013V38.3333H21.668V35Z" fill="#FF7600"/>
</svg>
