<svg width="80" height="80" viewBox="0 0 80 80" fill="none" xmlns="http://www.w3.org/2000/svg">
<circle cx="40" cy="40" r="40" fill="#389DF9"/>
<path d="M58 40C58 43.5601 56.9443 47.0402 54.9665 50.0003C52.9886 52.9603 50.1774 55.2675 46.8883 56.6298C43.5992 57.9922 39.98 58.3487 36.4884 57.6541C32.9967 56.9596 29.7894 55.2453 27.2721 52.7279C24.7547 50.2106 23.0404 47.0033 22.3459 43.5116C21.6513 40.02 22.0078 36.4008 23.3702 33.1117C24.7325 29.8226 27.0397 27.0114 29.9997 25.0335C32.9598 23.0557 36.4399 22 40 22V40H58Z" fill="white"/>
<path d="M60 38C60 35.6362 59.5344 33.2956 58.6298 31.1117C57.7252 28.9278 56.3994 26.9435 54.7279 25.2721C53.0565 23.6006 51.0722 22.2748 48.8883 21.3702C46.7044 20.4656 44.3638 20 42 20V38H60Z" fill="white"/>
</svg>
