<svg width="50" height="50" viewBox="0 0 50 50" fill="none" xmlns="http://www.w3.org/2000/svg">
<rect width="50" height="50" rx="10" fill="#FF7600" fill-opacity="0.1"/>
<path fill-rule="evenodd" clip-rule="evenodd" d="M35.3545 20.4773C35.3844 20.2511 35.4 20.0249 35.4 19.8C35.4 16.7073 32.6141 14.2256 29.5227 14.6455C28.6218 13.0426 26.9058 12 25 12C23.0942 12 21.3782 13.0426 20.4773 14.6455C17.3794 14.2256 14.6 16.7073 14.6 19.8C14.6 20.0249 14.6156 20.2511 14.6455 20.4773C13.0426 21.3795 12 23.0955 12 25C12 26.9045 13.0426 28.6205 14.6455 29.5227C14.6155 29.7472 14.6003 29.9735 14.6 30.2C14.6 33.2927 17.3794 35.7679 20.4773 35.3545C21.3782 36.9574 23.0942 38 25 38C26.9058 38 28.6218 36.9574 29.5227 35.3545C32.6141 35.7679 35.4 33.2927 35.4 30.2C35.4 29.9751 35.3844 29.7489 35.3545 29.5227C36.9574 28.6205 38 26.9045 38 25C38 23.0955 36.9574 21.3795 35.3545 20.4773ZM24.5707 18.1908C21.7341 18.3673 20.2519 19.9736 20.1225 22.8784H22.9838C23.0197 21.8722 23.5813 21.12 24.627 21.0091C25.6534 20.9001 26.6272 21.1446 26.9221 21.8464C27.2407 22.6044 26.5255 23.4853 26.1855 23.8551C25.908 24.1574 25.5541 24.4237 25.1997 24.6903L25.1997 24.6903C24.7504 25.0284 24.3002 25.3671 24.0039 25.7807C23.4845 26.5056 23.3921 27.4594 23.3521 28.6268H25.874C25.9093 27.8804 25.9591 27.1655 26.2986 26.7016C26.6508 26.221 27.1139 25.9032 27.5825 25.5816L27.5825 25.5816C27.8487 25.399 28.1166 25.2151 28.3671 24.9995C29.0274 24.4306 29.7221 23.7449 29.84 22.6836C30.1942 19.5073 27.6014 18.0017 24.5707 18.1908ZM26.228 31.232C26.228 32.098 25.5152 32.8 24.6358 32.8C23.7565 32.8 23.0437 32.098 23.0437 31.232C23.0437 30.3659 23.7565 29.6639 24.6358 29.6639C25.5152 29.6639 26.228 30.3659 26.228 31.232Z" fill="#FF7600"/>
</svg>
