<svg width="60" height="60" viewBox="0 0 60 60" fill="none" xmlns="http://www.w3.org/2000/svg">
<rect width="60" height="60" rx="14" fill="#FF7600" fill-opacity="0.08"/>
<path fill-rule="evenodd" clip-rule="evenodd" d="M43.5405 24.0857C43.5796 23.7899 43.6 23.4941 43.6 23.2C43.6 19.1557 39.9569 15.9104 35.9143 16.4595C34.7362 14.3634 32.4922 13 30 13C27.5078 13 25.2638 14.3634 24.0857 16.4595C20.0346 15.9104 16.4 19.1557 16.4 23.2C16.4 23.4941 16.4204 23.7899 16.4595 24.0857C14.3634 25.2655 13 27.5095 13 30C13 32.4905 14.3634 34.7345 16.4595 35.9143C16.4203 36.2079 16.4004 36.5038 16.4 36.8C16.4 40.8443 20.0346 44.0811 24.0857 43.5405C25.2638 45.6366 27.5078 47 30 47C32.4922 47 34.7362 45.6366 35.9143 43.5405C39.9569 44.0811 43.6 40.8443 43.6 36.8C43.6 36.5059 43.5796 36.2101 43.5405 35.9143C45.6366 34.7345 47 32.4905 47 30C47 27.5095 45.6366 25.2655 43.5405 24.0857ZM29.4378 21.0957C25.7285 21.3265 23.7902 23.427 23.6209 27.2256H27.3627C27.4096 25.9098 28.144 24.9261 29.5114 24.7811C30.8537 24.6386 32.1271 24.9583 32.5128 25.876C32.9294 26.8673 31.9942 28.0193 31.5495 28.5028C31.1866 28.8982 30.7238 29.2464 30.2604 29.595L30.2604 29.5951C29.6728 30.0372 29.0841 30.4801 28.6967 31.0209C28.0174 31.9689 27.8966 33.2162 27.8444 34.7427H31.1421C31.1884 33.7667 31.2534 32.8318 31.6974 32.2252C32.158 31.5966 32.7636 31.1811 33.3764 30.7606L33.3764 30.7606C33.7245 30.5218 34.0749 30.2813 34.4023 29.9994C35.2658 29.2554 36.1742 28.3587 36.3285 26.9709C36.7917 22.8173 33.4011 20.8484 29.4378 21.0957ZM31.6058 38.1495C31.6058 39.2819 30.6736 40.2 29.5237 40.2C28.3738 40.2 27.4416 39.2819 27.4416 38.1495C27.4416 37.017 28.3738 36.099 29.5237 36.099C30.6736 36.099 31.6058 37.017 31.6058 38.1495Z" fill="#FF7600"/>
</svg>
