<svg width="50" height="50" viewBox="0 0 50 50" fill="none" xmlns="http://www.w3.org/2000/svg">
<rect width="50" height="50" rx="10" fill="#A36AFF" fill-opacity="0.1"/>
<path d="M27.9983 17.2352C27.9993 17.2348 28 17.2338 28 17.2327C28 17.2307 28.0021 17.2294 28.0039 17.2302L32.2638 19.1607C32.4092 19.2266 32.5749 19.2319 32.7243 19.1752L35.5213 18.1141C36.0376 17.9183 36.0376 17.188 35.5214 16.9922L25.2129 13.0808C25.0757 13.0287 24.9243 13.0287 24.7871 13.0808L14.4785 16.9922C13.9623 17.1881 13.9623 17.9183 14.4785 18.1142L24.7871 22.0257C24.9243 22.0777 25.0757 22.0777 25.2129 22.0256L28.0821 20.9367C28.5894 20.7442 28.6009 20.0308 28.1001 19.822L25.0021 18.53C25.0008 18.5295 25 18.5282 25 18.5268C25 18.5255 25.0008 18.5242 25.0021 18.5237L27.9983 17.2352Z" fill="#A36AFF"/>
<path d="M13.8129 19.3794C13.4203 19.2305 13 19.5205 13 19.9404V32.3165C13 32.5658 13.1541 32.7891 13.3871 32.8775L23.4371 36.6915C23.8297 36.8405 24.25 36.5505 24.25 36.1305V23.7544C24.25 23.5052 24.0959 23.2819 23.8629 23.1934L13.8129 19.3794ZM19 31.9113C19 32.3312 18.5797 32.6212 18.1871 32.4723L16.3871 31.7893C16.1541 31.7009 16 31.4776 16 31.2283V30.8924C16 30.4724 16.4203 30.1824 16.8129 30.3314L18.6129 31.0144C18.8459 31.1028 19 31.3261 19 31.5753V31.9113Z" fill="#A36AFF"/>
<path d="M32.8871 20.6315C32.6541 20.7199 32.5 20.9432 32.5 21.1925V24.1663C32.5 24.4155 32.3459 24.6388 32.1129 24.7272L30.3129 25.4102C29.9203 25.5592 29.5 25.2692 29.5 24.8492V22.7863C29.5 22.3663 29.0797 22.0763 28.687 22.2253L26.137 23.1934C25.9041 23.2819 25.75 23.5051 25.75 23.7544V36.1305C25.75 36.5505 26.1703 36.8405 26.5629 36.6915L36.6129 32.8775C36.8459 32.7891 37 32.5658 37 32.3165V19.9404C37 19.5204 36.5797 19.2304 36.1871 19.3794L32.8871 20.6315Z" fill="#A36AFF"/>
<circle cx="16" cy="19" r="6.5" fill="#A36AFF" stroke="url(#paint0_linear)"/>
<g clip-path="url(#clip0)">
<path d="M18.7407 16.205C18.8776 16.0751 19.0637 16.0014 19.2583 16C19.4529 15.9987 19.6401 16.0698 19.7791 16.1978C19.918 16.3258 19.9974 16.5004 19.9999 16.6832C20.0024 16.8661 19.9278 17.0425 19.7924 17.1738L15.8735 21.7789C15.8062 21.847 15.7249 21.9017 15.6346 21.9397C15.5443 21.9777 15.4468 21.9981 15.3479 21.9999C15.249 22.0016 15.1507 21.9846 15.059 21.9499C14.9672 21.9152 14.8838 21.8634 14.8138 21.7977L12.2156 19.3563C12.0775 19.2265 12 19.0504 12 18.8668C12 18.6832 12.0777 18.5072 12.2158 18.3774C12.354 18.2476 12.5413 18.1747 12.7366 18.1747C12.9319 18.1748 13.1192 18.2478 13.2573 18.3776L15.3122 20.3097L18.7212 16.2266C18.7274 16.2192 18.734 16.2121 18.7412 16.2055L18.7407 16.205Z" fill="#EADFED"/>
</g>
<defs>
<linearGradient id="paint0_linear" x1="10.5" y1="14" x2="22" y2="23.5" gradientUnits="userSpaceOnUse">
<stop stop-color="#E9DFEC"/>
<stop offset="1" stop-color="#E9DFEB"/>
</linearGradient>
<clipPath id="clip0">
<rect width="8" height="8" fill="white" transform="translate(12 15)"/>
</clipPath>
</defs>
</svg>
