<svg width="60" height="60" viewBox="0 0 60 60" fill="none" xmlns="http://www.w3.org/2000/svg">
<rect width="60" height="60" rx="14" fill="#A36AFF" fill-opacity="0.1"/>
<path d="M34.2476 18.9999C34.2491 18.9993 34.25 18.9978 34.25 18.9963C34.25 18.9935 34.2529 18.9916 34.2555 18.9927L40.385 21.7706C40.5305 21.8365 40.6962 21.8417 40.8455 21.7851L45.5213 20.0113C46.0376 19.8155 46.0376 19.0852 45.5214 18.8893L30.2128 13.0808C30.0757 13.0287 29.9243 13.0287 29.7871 13.0808L14.4785 18.8894C13.9623 19.0853 13.9623 19.8155 14.4785 20.0114L29.7871 25.82C29.9243 25.872 30.0757 25.872 30.2129 25.82L34.9533 24.0209C35.4606 23.8284 35.4721 23.115 34.9714 22.9061L30.003 20.8342C30.0012 20.8334 30 20.8316 30 20.8297C30 20.8277 30.0012 20.826 30.0029 20.8252L34.2476 18.9999Z" fill="#A36AFF"/>
<path d="M13.8129 21.9089C13.4203 21.7599 13 22.05 13 22.4699V40.5375C13 40.7868 13.1541 41.0101 13.3871 41.0985L28.1246 46.6914C28.5172 46.8404 28.9375 46.5504 28.9375 46.1304V28.0628C28.9375 27.8136 28.7834 27.5903 28.5504 27.5018L13.8129 21.9089ZM21.5 40.1531C21.5 40.5731 21.0797 40.8631 20.6871 40.7141L17.6371 39.5568C17.4041 39.4684 17.25 39.2451 17.25 38.9959V37.9852C17.25 37.5652 17.6702 37.2752 18.0629 37.4242L21.1129 38.5815C21.3459 38.6699 21.5 38.8932 21.5 39.1424V40.1531Z" fill="#A36AFF"/>
<path d="M41.0121 23.8724C40.7791 23.9609 40.625 24.1842 40.625 24.4334V28.9913C40.625 29.2406 40.4709 29.4639 40.2379 29.5523L37.1879 30.7096C36.7952 30.8585 36.375 30.5685 36.375 30.1486V26.5015C36.375 26.0815 35.9547 25.7915 35.562 25.9406L31.4495 27.5018C31.2166 27.5903 31.0625 27.8135 31.0625 28.0627V46.1304C31.0625 46.5504 31.4828 46.8404 31.8754 46.6914L46.6129 41.0985C46.8459 41.0101 47 40.7868 47 40.5375V22.4698C47 22.0499 46.5797 21.7599 46.1871 21.9089L41.0121 23.8724Z" fill="#A36AFF"/>
<circle cx="17" cy="20" r="6.5" fill="#A36AFF" stroke="#F2EDFF"/>
<g clip-path="url(#clip0)">
<path d="M19.7407 17.205C19.8776 17.0751 20.0637 17.0014 20.2583 17C20.4529 16.9987 20.6401 17.0698 20.7791 17.1978C20.918 17.3258 20.9974 17.5004 20.9999 17.6832C21.0024 17.8661 20.9278 18.0425 20.7924 18.1738L16.8735 22.7789C16.8062 22.847 16.7249 22.9017 16.6346 22.9397C16.5443 22.9777 16.4468 22.9981 16.3479 22.9999C16.249 23.0016 16.1507 22.9846 16.059 22.9499C15.9672 22.9152 15.8838 22.8634 15.8138 22.7977L13.2156 20.3563C13.0775 20.2265 13 20.0504 13 19.8668C13 19.6832 13.0777 19.5072 13.2158 19.3774C13.354 19.2476 13.5413 19.1747 13.7366 19.1747C13.9319 19.1748 14.1192 19.2478 14.2573 19.3776L16.3122 21.3097L19.7212 17.2266C19.7274 17.2192 19.734 17.2121 19.7412 17.2055L19.7407 17.205Z" fill="#EADFED"/>
</g>
<defs>
<clipPath id="clip0">
<rect width="8" height="8" fill="white" transform="translate(13 16)"/>
</clipPath>
</defs>
</svg>
