<svg width="60" height="60" viewBox="0 0 60 60" fill="none" xmlns="http://www.w3.org/2000/svg">
<rect width="60" height="60" rx="14" fill="#28CDB7" fill-opacity="0.1"/>
<path d="M35.9766 29.1699L38.1348 31.3281L35.4453 34.0176C35.2461 34.2168 35.2461 34.416 35.4453 34.6152L36.0098 35.1797C36.209 35.3789 36.4082 35.3789 36.6074 35.1797L39.2969 32.4902L43.4473 36.6406L40.7578 39.3301C40.5586 39.5293 40.5586 39.7174 40.7578 39.8945L41.3223 40.4922C41.5215 40.6914 41.7207 40.6914 41.9199 40.4922L44.6094 37.8027L46.7012 39.8945C46.9004 40.0938 47 40.3372 47 40.625C47 40.9128 46.9004 41.1673 46.7012 41.3887L41.3887 46.7012C41.1673 46.9004 40.9128 47 40.625 47C40.3372 47 40.0938 46.9004 39.8945 46.7012L29.1699 35.9766L22.9167 42.0417C22.5625 42.3958 22.1419 42.75 21.6328 42.75C21.1237 42.75 20.6921 42.5729 20.3379 42.2188L17.8145 39.6621C17.4603 39.3079 17.2832 38.8818 17.2832 38.3838C17.2832 37.8857 17.4603 37.4596 17.8145 37.1055L24.0566 30.8633L13.2988 20.1055C13.0996 19.9062 13 19.6628 13 19.375C13 19.0872 13.0996 18.8438 13.2988 18.6445L18.6113 13.2988C18.8327 13.0996 19.0872 13 19.375 13C19.6628 13 19.9062 13.0996 20.1055 13.2988L22.1973 15.3906L19.5078 18.0801C19.3086 18.2793 19.3086 18.4785 19.5078 18.6777L20.0723 19.2422C20.2715 19.4414 20.4707 19.4414 20.6699 19.2422L23.3594 16.5527L27.5098 20.7031L24.8203 23.3926C24.6211 23.5918 24.6211 23.791 24.8203 23.9902L25.3848 24.5547C25.584 24.7539 25.7832 24.7539 25.9824 24.5547L28.6719 21.8652L30.8301 24.0566L41.3555 13.5312C41.7096 13.1771 42.1357 13 42.6338 13C43.1318 13 43.5579 13.1771 43.9121 13.5312L46.4688 16.0879C46.8229 16.4421 47 16.8682 47 17.3662C47 17.8643 46.8229 18.2904 46.4688 18.6445L35.9766 29.1699ZM15.1914 39.8281C15.2357 40.0052 15.3132 40.1491 15.4238 40.2598L19.7402 44.5762C19.8509 44.6868 19.9948 44.7643 20.1719 44.8086C20.0612 45.0299 19.9727 45.1628 19.9062 45.207L14.0625 47C13.5312 47 13.2214 46.9557 13.1328 46.8672C13.0443 46.7786 13 46.4688 13 45.9375L14.793 40.0938C14.8372 40.0495 14.9701 39.9609 15.1914 39.8281Z" fill="#28CDB7"/>
<path d="M21.1406 33.9653L25.9809 39.1944L21.7158 43.1424C21.5131 43.33 21.1968 43.3178 21.0092 43.1151L16.8482 38.62C16.6606 38.4173 16.6729 38.101 16.8755 37.9134L21.1406 33.9653Z" fill="#28CDB7"/>
</svg>
