<svg width="50" height="50" viewBox="0 0 50 50" fill="none" xmlns="http://www.w3.org/2000/svg">
<rect width="50" height="50" rx="10" fill="#28CDB7" fill-opacity="0.1"/>
<path d="M29.2188 24.4141L30.7422 25.9375L28.8438 27.8359C28.7031 27.9766 28.7031 28.1172 28.8438 28.2578L29.2422 28.6562C29.3828 28.7969 29.5234 28.7969 29.6641 28.6562L31.5625 26.7578L34.4922 29.6875L32.5938 31.5859C32.4531 31.7266 32.4531 31.8594 32.5938 31.9844L32.9922 32.4062C33.1328 32.5469 33.2734 32.5469 33.4141 32.4062L35.3125 30.5078L36.7891 31.9844C36.9297 32.125 37 32.2969 37 32.5C37 32.7031 36.9297 32.8828 36.7891 33.0391L33.0391 36.7891C32.8828 36.9297 32.7031 37 32.5 37C32.2969 37 32.125 36.9297 31.9844 36.7891L24.4141 29.2188L20 33.5C19.75 33.75 19.4531 34 19.0938 34C18.7344 34 18.4297 33.875 18.1797 33.625L16.3984 31.8203C16.1484 31.5703 16.0234 31.2695 16.0234 30.918C16.0234 30.5664 16.1484 30.2656 16.3984 30.0156L20.8047 25.6094L13.2109 18.0156C13.0703 17.875 13 17.7031 13 17.5C13 17.2969 13.0703 17.125 13.2109 16.9844L16.9609 13.2109C17.1172 13.0703 17.2969 13 17.5 13C17.7031 13 17.875 13.0703 18.0156 13.2109L19.4922 14.6875L17.5938 16.5859C17.4531 16.7266 17.4531 16.8672 17.5938 17.0078L17.9922 17.4062C18.1328 17.5469 18.2734 17.5469 18.4141 17.4062L20.3125 15.5078L23.2422 18.4375L21.3438 20.3359C21.2031 20.4766 21.2031 20.6172 21.3438 20.7578L21.7422 21.1562C21.8828 21.2969 22.0234 21.2969 22.1641 21.1562L24.0625 19.2578L25.5859 20.8047L33.0156 13.375C33.2656 13.125 33.5664 13 33.918 13C34.2695 13 34.5703 13.125 34.8203 13.375L36.625 15.1797C36.875 15.4297 37 15.7305 37 16.082C37 16.4336 36.875 16.7344 36.625 16.9844L29.2188 24.4141ZM14.5469 31.9375C14.5781 32.0625 14.6328 32.1641 14.7109 32.2422L17.7578 35.2891C17.8359 35.3672 17.9375 35.4219 18.0625 35.4531C17.9844 35.6094 17.9219 35.7031 17.875 35.7344L13.75 37C13.375 37 13.1562 36.9688 13.0937 36.9062C13.0312 36.8438 13 36.625 13 36.25L14.2656 32.125C14.2969 32.0938 14.3906 32.0312 14.5469 31.9375Z" fill="#28CDB7"/>
<path d="M18.7461 27.7991L22.1628 31.4902L19.26 34.1771C19.0574 34.3647 18.741 34.3525 18.5534 34.1499L15.8161 31.1926C15.6285 30.99 15.6407 30.6736 15.8433 30.4861L18.7461 27.7991Z" fill="#28CDB7"/>
</svg>
