<svg width="110" height="110" viewBox="0 0 110 110" fill="none" xmlns="http://www.w3.org/2000/svg">
<circle opacity="0.1" cx="55" cy="55" r="55" fill="#2296FF"/>
<g clip-path="url(#clip0)">
<path d="M69.5007 44.3H60.8007V26.9H49.2007V44.3H40.5007L55.0007 58.8L69.5007 44.3ZM82.0809 63.2428C81.4719 62.5932 77.409 58.2461 76.249 57.1122C75.4361 56.333 74.3532 55.8986 73.2272 55.9H68.1319L77.0175 64.5826H66.7399C66.6002 64.5801 66.4623 64.6144 66.3401 64.6821C66.2179 64.7498 66.1158 64.8485 66.0439 64.9683L63.6775 70.4H46.3239L43.9575 64.9683C43.8852 64.8489 43.7829 64.7505 43.6608 64.6829C43.5387 64.6152 43.4011 64.5806 43.2615 64.5826H32.9839L41.8666 55.9H36.7742C35.6229 55.9 34.5238 56.3611 33.7524 57.1122C32.5924 58.249 28.5295 62.5961 27.9205 63.2428C26.5024 64.7537 25.7223 65.9572 26.0935 67.4449L27.7204 76.3595C28.0916 77.8501 29.7243 79.0739 31.3512 79.0739H78.656C80.2829 79.0739 81.9156 77.8501 82.2868 76.3595L83.9137 67.4449C84.2791 65.9572 83.5019 64.7537 82.0809 63.2428V63.2428Z" fill="#2296FF"/>
<path d="M31.3125 64H78L77.875 74H41L31.3125 64Z" fill="#2296FF"/>
</g>
<defs>
<clipPath id="clip0">
<rect width="58" height="58" fill="white" transform="translate(26 24)"/>
</clipPath>
</defs>
</svg>
