<svg width="50" height="50" viewBox="0 0 50 50" fill="none" xmlns="http://www.w3.org/2000/svg">
<rect width="50" height="50" rx="10" fill="#A36AFF" fill-opacity="0.1"/>
<path d="M26.3203 11.8056C27.8798 11.8056 29.4239 12.1127 30.8647 12.7095C32.3054 13.3063 33.6145 14.181 34.7172 15.2837C35.8199 16.3864 36.6946 17.6955 37.2914 19.1362C37.8882 20.5769 38.1953 22.1211 38.1953 23.6806L26.3203 23.6806V11.8056Z" fill="#A36AFF"/>
<path fill-rule="evenodd" clip-rule="evenodd" d="M13.125 25C13.125 31.5584 18.4416 36.875 25 36.875C31.5584 36.875 36.875 31.5584 36.875 25C36.875 18.4416 31.5584 13.125 25 13.125C18.4416 13.125 13.125 18.4416 13.125 25ZM25 13.125V25H36.875C36.875 23.4406 36.5678 21.8964 35.9711 20.4556C35.3743 19.0149 34.4996 17.7058 33.3969 16.6031C32.2942 15.5004 30.9851 14.6257 29.5444 14.0289C28.1036 13.4322 26.5594 13.125 25 13.125Z" fill="#A36AFF"/>
</svg>
