<svg width="60" height="60" viewBox="0 0 60 60" fill="none" xmlns="http://www.w3.org/2000/svg">
<rect width="60" height="60" rx="12" fill="url(#paint0_linear)"/>
<path d="M31.5833 14.1667C33.4547 14.1667 35.3077 14.5353 37.0366 15.2514C38.7655 15.9675 40.3364 17.0172 41.6596 18.3404C42.9828 19.6637 44.0325 21.2346 44.7486 22.9634C45.4647 24.6923 45.8333 26.5454 45.8333 28.4167L31.5833 28.4167V14.1667Z" fill="white"/>
<path fill-rule="evenodd" clip-rule="evenodd" d="M15.75 30C15.75 37.8701 22.1299 44.25 30 44.25C37.8701 44.25 44.25 37.8701 44.25 30C44.25 26.1418 42.7167 22.6418 40.2262 20.0759C41.479 21.3668 42.4764 22.8837 43.1653 24.5468C43.8814 26.2757 44.25 28.1287 44.25 30H30V15.75C31.8713 15.75 33.7243 16.1186 35.4532 16.8347C37.1821 17.5508 38.753 18.6005 40.0763 19.9237C37.4975 17.345 33.935 15.75 30 15.75C22.1299 15.75 15.75 22.1299 15.75 30Z" fill="white"/>
<defs>
<linearGradient id="paint0_linear" x1="0" y1="0" x2="60" y2="60" gradientUnits="userSpaceOnUse">
<stop stop-color="#BB92FF"/>
<stop offset="1" stop-color="#A36AFF"/>
</linearGradient>
</defs>
</svg>
