<svg width="80" height="80" viewBox="0 0 80 80" fill="none" xmlns="http://www.w3.org/2000/svg">
<circle cx="40" cy="40" r="40" fill="#A885FF"/>
<path fill-rule="evenodd" clip-rule="evenodd" d="M24 20C21.7909 20 20 21.7909 20 24V26H60V24C60 21.7909 58.2091 20 56 20H24ZM60 28H20V56C20 58.2091 21.7909 60 24 60H56C58.2091 60 60 58.2091 60 56V28ZM43.3509 34.0637C43.868 34.2576 44.13 34.834 43.9361 35.3511L37.9361 51.3511C37.7422 51.8682 37.1658 52.1302 36.6487 51.9363C36.1315 51.7424 35.8695 51.166 36.0634 50.6489L42.0634 34.6489C42.2573 34.1318 42.8337 33.8698 43.3509 34.0637ZM34.7071 36.2929C35.0976 36.6834 35.0976 37.3166 34.7071 37.7071L29.4142 43L34.7071 48.2929C35.0976 48.6834 35.0976 49.3166 34.7071 49.7071C34.3166 50.0976 33.6834 50.0976 33.2929 49.7071L27.2929 43.7071C26.9024 43.3166 26.9024 42.6834 27.2929 42.2929L33.2929 36.2929C33.6834 35.9024 34.3166 35.9024 34.7071 36.2929ZM45.2929 36.2929C44.9024 36.6834 44.9024 37.3166 45.2929 37.7071L50.5858 43L45.2929 48.2929C44.9024 48.6834 44.9024 49.3166 45.2929 49.7071C45.6834 50.0976 46.3166 50.0976 46.7071 49.7071L52.7071 43.7071C53.0976 43.3166 53.0976 42.6834 52.7071 42.2929L46.7071 36.2929C46.3166 35.9024 45.6834 35.9024 45.2929 36.2929ZM28 23C28 23.5523 27.5523 24 27 24C26.4477 24 26 23.5523 26 23C26 22.4477 26.4477 22 27 22C27.5523 22 28 22.4477 28 23ZM31 24C31.5523 24 32 23.5523 32 23C32 22.4477 31.5523 22 31 22C30.4477 22 30 22.4477 30 23C30 23.5523 30.4477 24 31 24Z" fill="white"/>
</svg>
