<svg width="60" height="60" viewBox="0 0 60 60" fill="none" xmlns="http://www.w3.org/2000/svg">
<rect width="60" height="60" rx="14" fill="#E5F1FF"/>
<path fill-rule="evenodd" clip-rule="evenodd" d="M17 13C14.7909 13 13 14.7909 13 17V18.1001H47V17C47 14.7909 45.2091 13 43 13H17ZM47 19.8001H13V43C13 45.2091 14.7909 47 17 47H43C45.2091 47 47 45.2091 47 43V19.8001ZM32.9045 24.8137C33.4216 25.0076 33.6836 25.584 33.4897 26.1011L28.3897 39.7011C28.1958 40.2182 27.6194 40.4802 27.1022 40.2863C26.5851 40.0924 26.3231 39.516 26.517 38.9989L31.617 25.3989C31.8109 24.8818 32.3873 24.6198 32.9045 24.8137ZM25.6113 26.743C26.0018 27.1335 26.0018 27.7667 25.6113 28.1572L21.2184 32.5501L25.6113 36.943C26.0018 37.3335 26.0018 37.9667 25.6113 38.3572C25.2208 38.7477 24.5876 38.7477 24.1971 38.3572L19.0971 33.2572C18.7066 32.8667 18.7066 32.2335 19.0971 31.843L24.1971 26.743C24.5876 26.3525 25.2208 26.3525 25.6113 26.743ZM34.3963 26.743C34.0058 27.1335 34.0058 27.7667 34.3963 28.1572L38.7892 32.5501L34.3963 36.943C34.0058 37.3335 34.0058 37.9667 34.3963 38.3572C34.7868 38.7477 35.42 38.7477 35.8105 38.3572L40.9105 33.2572C41.301 32.8667 41.301 32.2335 40.9105 31.843L35.8105 26.743C35.42 26.3525 34.7868 26.3525 34.3963 26.743ZM19.8008 15.5501C19.8008 16.0195 19.4203 16.4001 18.9508 16.4001C18.4814 16.4001 18.1008 16.0195 18.1008 15.5501C18.1008 15.0807 18.4814 14.7001 18.9508 14.7001C19.4203 14.7001 19.8008 15.0807 19.8008 15.5501ZM22.3493 16.4C22.8187 16.4 23.1993 16.0195 23.1993 15.55C23.1993 15.0806 22.8187 14.7 22.3493 14.7C21.8798 14.7 21.4993 15.0806 21.4993 15.55C21.4993 16.0195 21.8798 16.4 22.3493 16.4Z" fill="#2296FF"/>
</svg>
