<svg width="80" height="80" viewBox="0 0 80 80" fill="none" xmlns="http://www.w3.org/2000/svg">
<circle cx="40" cy="40" r="40" fill="#389DF9"/>
<rect x="20" y="20.0002" width="18" height="18" rx="4" fill="white"/>
<rect x="20" y="41.9998" width="18" height="18" rx="4" fill="white"/>
<rect x="42" y="20.0002" width="18" height="18" rx="4" fill="white"/>
<path fill-rule="evenodd" clip-rule="evenodd" d="M51 59.9998C55.9706 59.9998 60 55.9703 60 50.9998C60 46.0292 55.9706 41.9998 51 41.9998C46.0295 41.9998 42 46.0292 42 50.9998C42 55.9703 46.0295 59.9998 51 59.9998ZM56.246 49.609C56.6858 49.231 56.7357 48.568 56.3577 48.1283C55.9796 47.6886 55.3167 47.6386 54.877 48.0167L49.1347 52.9537L47.277 50.7931C46.8989 50.3533 46.236 50.3034 45.7963 50.6814C45.3565 51.0595 45.3066 51.7224 45.6846 52.1621L48.2272 55.1194C48.6053 55.5591 49.2682 55.6091 49.7079 55.231C49.7161 55.224 49.7241 55.2169 49.732 55.2097L56.246 49.609Z" fill="white"/>
</svg>
