<svg width="18" height="18" viewBox="0 0 18 18" fill="none" xmlns="http://www.w3.org/2000/svg">
<circle cx="9" cy="9" r="7.5" stroke="#2296FF" stroke-opacity="0.3"/>
<path d="M9 16C10.8565 16 12.637 15.2625 13.9497 13.9497C15.2625 12.637 16 10.8565 16 9C16 7.14348 15.2625 5.36301 13.9497 4.05025C12.637 2.7375 10.8565 2 9 2C7.14348 2 5.36301 2.7375 4.05025 4.05025C2.7375 5.36301 2 7.14348 2 9C2 10.8565 2.7375 12.637 4.05025 13.9497C5.36301 15.2625 7.14348 16 9 16V16ZM9.81375 7.7645L8.93875 11.8814C8.8775 12.1789 8.96413 12.3478 9.20475 12.3478C9.3745 12.3478 9.63088 12.2865 9.805 12.1325L9.728 12.4965C9.47687 12.7993 8.923 13.0197 8.44613 13.0197C7.831 13.0197 7.56938 12.6505 7.73913 11.8656L8.38487 8.83113C8.44087 8.57475 8.39013 8.482 8.13375 8.41987L7.73913 8.349L7.81087 8.01562L9.81462 7.7645H9.81375ZM9 6.8125C8.76794 6.8125 8.54538 6.72031 8.38128 6.55622C8.21719 6.39212 8.125 6.16956 8.125 5.9375C8.125 5.70544 8.21719 5.48288 8.38128 5.31878C8.54538 5.15469 8.76794 5.0625 9 5.0625C9.23206 5.0625 9.45462 5.15469 9.61872 5.31878C9.78281 5.48288 9.875 5.70544 9.875 5.9375C9.875 6.16956 9.78281 6.39212 9.61872 6.55622C9.45462 6.72031 9.23206 6.8125 9 6.8125V6.8125Z" fill="#2296FF"/>
</svg>
