<svg width="80" height="80" viewBox="0 0 80 80" fill="none" xmlns="http://www.w3.org/2000/svg">
<circle cx="40" cy="40" r="40" fill="#389DF9"/>
<g clip-path="url(#clip0)">
<path d="M40 22.914C39.172 22.914 38.5 22.242 38.5 21.414V17.5C38.5 16.672 39.172 16 40 16C40.828 16 41.5 16.672 41.5 17.5V21.414C41.5 22.242 40.828 22.914 40 22.914Z" fill="white"/>
<path d="M53.1421 28.3579C52.7581 28.3579 52.3741 28.2119 52.0821 27.9179C51.4961 27.3319 51.4961 26.3819 52.0821 25.7959L54.8501 23.0279C55.4361 22.4419 56.3861 22.4419 56.9721 23.0279C57.5581 23.6139 57.5581 24.5639 56.9721 25.1499L54.2041 27.9179C53.9101 28.2099 53.5261 28.3579 53.1421 28.3579Z" fill="white"/>
<path d="M62.5 41.5H58.5859C57.7579 41.5 57.0859 40.828 57.0859 40C57.0859 39.172 57.7579 38.5 58.5859 38.5H62.5C63.328 38.5 64 39.172 64 40C64 40.828 63.328 41.5 62.5 41.5Z" fill="white"/>
<path d="M55.9101 57.4099C55.5261 57.4099 55.1421 57.2639 54.8501 56.9699L52.0821 54.2019C51.4961 53.6159 51.4961 52.6659 52.0821 52.0799C52.6681 51.4939 53.6181 51.4939 54.2041 52.0799L56.9721 54.8479C57.5581 55.4339 57.5581 56.3839 56.9721 56.9699C56.6781 57.2639 56.2941 57.4099 55.9101 57.4099Z" fill="white"/>
<path d="M24.0893 57.4099C23.7053 57.4099 23.3213 57.2639 23.0293 56.9699C22.4433 56.3839 22.4433 55.4339 23.0293 54.8479L25.7973 52.0799C26.3833 51.4939 27.3333 51.4939 27.9193 52.0799C28.5053 52.6659 28.5053 53.6159 27.9193 54.2019L25.1513 56.9699C24.8573 57.2639 24.4733 57.4099 24.0893 57.4099Z" fill="white"/>
<path d="M21.414 41.5H17.5C16.672 41.5 16 40.828 16 40C16 39.172 16.672 38.5 17.5 38.5H21.414C22.242 38.5 22.914 39.172 22.914 40C22.914 40.828 22.242 41.5 21.414 41.5Z" fill="white"/>
<path d="M26.8573 28.3579C26.4733 28.3579 26.0893 28.2119 25.7973 27.9179L23.0293 25.1499C22.4433 24.5639 22.4433 23.6139 23.0293 23.0279C23.6153 22.4419 24.5653 22.4419 25.1513 23.0279L27.9193 25.7959C28.5053 26.3819 28.5053 27.3319 27.9193 27.9179C27.6233 28.2099 27.2413 28.3579 26.8573 28.3579Z" fill="white"/>
<path d="M46 58V60.5C46 62.42 44.42 64 42.5 64H37.5C35.82 64 34 62.72 34 59.92V58H46Z" fill="white"/>
<path d="M33.8594 55H33.9994C33.9594 55 33.8994 55 33.8594 55.02V55Z" fill="white"/>
<path d="M46.1 55V55.02C46.06 55 46.04 55 46 55H46.1Z" fill="white"/>
<path fill-rule="evenodd" clip-rule="evenodd" d="M48.8206 29.1202C45.5406 26.4602 41.2206 25.4202 37.0006 26.3202C31.7006 27.4202 27.4006 31.7402 26.3006 37.0402C25.1806 42.4802 27.2206 47.8802 31.5806 51.1802C32.7606 52.0602 33.5806 53.4202 33.8606 55.0002V55.0202C33.9006 55.0002 33.9606 55.0002 34.0006 55.0002H46.0006C46.0406 55.0002 46.0606 55.0002 46.1006 55.0202V55.0002C46.3806 53.4802 47.2806 52.0802 48.6606 51.0002C52.0406 48.3202 54.0006 44.3202 54.0006 40.0002C54.0006 35.7602 52.1206 31.8002 48.8206 29.1202ZM36.0979 32.6281L32.6288 36.0972L32.0076 32.5498C31.9812 32.3994 32.0298 32.2456 32.1378 32.1376C32.2458 32.0296 32.3996 31.981 32.5501 32.0073L36.0979 32.6281ZM33.1327 36.9187L44.0901 47.8626C44.178 47.9504 44.2971 47.9997 44.4214 47.9997H44.4221C44.5465 47.9995 44.6658 47.9498 44.7536 47.8616L45.9733 46.6357L34.6946 35.3569L33.1327 36.9187ZM35.3574 34.6941L36.9199 33.1316L47.8624 44.0742C48.0451 44.2569 48.0455 44.553 47.8632 44.7362L46.6345 45.9712L35.3574 34.6941ZM47.8633 35.9098C47.9513 35.8218 48.0006 35.7023 48.0004 35.5778C48.0002 35.4534 47.9505 35.3341 47.8623 35.2463L44.737 32.1366C44.5538 31.9543 44.2576 31.9547 44.0749 32.1374L43.4994 32.7129L44.8441 34.0576C45.0272 34.2407 45.0272 34.5375 44.8441 34.7205C44.7526 34.8121 44.6326 34.8578 44.5127 34.8578C44.3927 34.8578 44.2728 34.8121 44.1812 34.7205L42.8365 33.3758L41.9369 34.2754L43.2817 35.6201C43.4647 35.8031 43.4647 36.0999 43.2817 36.283C43.1902 36.3745 43.0702 36.4203 42.9503 36.4203C42.8303 36.4203 42.7103 36.3745 42.6188 36.283L41.2741 34.9382L40.6633 35.549L44.4457 39.3314L47.8633 35.9098ZM36.2836 42.6183L34.9389 41.2736L35.5522 40.6602L39.3399 44.4432L35.9254 47.8617C35.8376 47.9496 35.7183 47.9991 35.594 47.9991H35.5938C35.4695 47.9991 35.3503 47.9498 35.2624 47.8618L32.1379 44.7374C32.05 44.6495 32.0006 44.5303 32.0006 44.4059C32.0006 44.2816 32.05 44.1624 32.1379 44.0745L32.7135 43.4989L34.0583 44.8437C34.1498 44.9352 34.2697 44.981 34.3897 44.981C34.5096 44.981 34.6296 44.9352 34.7211 44.8437C34.9042 44.6606 34.9042 44.3638 34.7211 44.1808L33.3764 42.836L34.276 41.9365L35.6207 43.2812C35.7122 43.3727 35.8322 43.4185 35.9522 43.4185C36.0721 43.4185 36.1921 43.3727 36.2836 43.2812C36.4667 43.0981 36.4667 42.8014 36.2836 42.6183Z" fill="white"/>
</g>
<defs>
<clipPath id="clip0">
<rect width="48" height="48" fill="white" transform="translate(16 16)"/>
</clipPath>
</defs>
</svg>
