<svg width="60" height="60" viewBox="0 0 60 60" fill="none" xmlns="http://www.w3.org/2000/svg">
<rect width="60" height="60" rx="16" fill="#F2EDFF"/>
<path d="M30 18C29.448 18 29 17.514 29 16.9152V14.0848C29 13.486 29.448 13 30 13C30.552 13 31 13.486 31 14.0848V16.9152C31 17.514 30.552 18 30 18Z" fill="#A36AFF"/>
<path d="M39.0397 22C38.7734 22 38.5072 21.8988 38.3047 21.6949C37.8984 21.2887 37.8984 20.63 38.3047 20.2238L40.224 18.3047C40.6303 17.8984 41.289 17.8984 41.6953 18.3047C42.1016 18.711 42.1016 19.3696 41.6953 19.7759L39.776 21.6949C39.5722 21.8974 39.3059 22 39.0397 22V22Z" fill="#A36AFF"/>
<path d="M45.9152 31H43.0848C42.486 31 42 30.552 42 30C42 29.448 42.486 29 43.0848 29H45.9152C46.514 29 47 29.448 47 30C47 30.552 46.514 31 45.9152 31Z" fill="#A36AFF"/>
<path d="M40.9589 42C40.6927 42 40.4264 41.8988 40.224 41.6949L38.3047 39.7759C37.8984 39.3696 37.8984 38.711 38.3047 38.3047C38.711 37.8984 39.3697 37.8984 39.776 38.3047L41.6953 40.2238C42.1016 40.63 42.1016 41.2887 41.6953 41.6949C41.4914 41.8988 41.2252 42 40.9589 42Z" fill="#A36AFF"/>
<path d="M19.0397 42C18.7734 42 18.5072 41.8988 18.3047 41.6949C17.8984 41.2887 17.8984 40.63 18.3047 40.2238L20.224 38.3047C20.6303 37.8984 21.289 37.8984 21.6953 38.3047C22.1016 38.711 22.1016 39.3696 21.6953 39.7759L19.776 41.6949C19.5722 41.8988 19.3059 42 19.0397 42V42Z" fill="#A36AFF"/>
<path d="M16.9152 31H14.0848C13.486 31 13 30.552 13 30C13 29.448 13.486 29 14.0848 29H16.9152C17.514 29 18 29.448 18 30C18 30.552 17.514 31 16.9152 31Z" fill="#A36AFF"/>
<path d="M20.9589 22C20.6927 22 20.4264 21.8988 20.224 21.6949L18.3047 19.7759C17.8984 19.3696 17.8984 18.711 18.3047 18.3047C18.711 17.8984 19.3697 17.8984 19.776 18.3047L21.6953 20.2238C22.1016 20.63 22.1016 21.2887 21.6953 21.6949C21.49 21.8974 21.2252 22 20.9589 22V22Z" fill="#A36AFF"/>
<path d="M34 43V44.6667C34 45.9467 32.9467 47 31.6667 47H28.3333C27.2133 47 26 46.1467 26 44.28V43H34Z" fill="#A36AFF"/>
<path fill-rule="evenodd" clip-rule="evenodd" d="M36.248 22.2935C33.9247 20.4093 30.8647 19.6727 27.8755 20.3102C24.1214 21.0893 21.0755 24.1493 20.2964 27.9035C19.503 31.7568 20.948 35.5818 24.0364 37.9193C24.8722 38.5427 25.453 39.506 25.6514 40.6252V40.6393C25.6797 40.6252 25.7222 40.6252 25.7505 40.6252H34.2505C34.2788 40.6252 34.293 40.6252 34.3214 40.6393V40.6252C34.5197 39.5485 35.1572 38.5568 36.1347 37.7918C38.5288 35.8935 39.9172 33.0602 39.9172 30.0002C39.9172 26.9968 38.5855 24.1918 36.248 22.2935ZM27.5609 25.3927L25.3927 27.5608L25.0045 25.3437C24.988 25.2497 25.0183 25.1536 25.0858 25.0861C25.1533 25.0186 25.2495 24.9882 25.3435 25.0046L27.5609 25.3927ZM25.7083 28.0741L32.5566 34.914C32.6115 34.9689 32.686 34.9997 32.7636 34.9997H32.7641C32.8419 34.9996 32.9164 34.9685 32.9713 34.9134L33.7336 34.1472L26.6844 27.098L25.7083 28.0741ZM27.0977 26.6837L28.0743 25.7072L34.9134 32.5463C35.0276 32.6605 35.0278 32.8456 34.9139 32.9601L34.1459 33.7319L27.0977 26.6837ZM34.9143 27.4436C34.9692 27.3885 35.0001 27.3139 35 27.2361C34.9998 27.1583 34.9688 27.0837 34.9136 27.0289L32.9603 25.0853C32.8458 24.9714 32.6607 24.9716 32.5465 25.0858L32.1868 25.4455L33.0273 26.2859C33.1417 26.4003 33.1417 26.5858 33.0273 26.7002C32.9701 26.7575 32.8951 26.7861 32.8201 26.7861C32.7452 26.7861 32.6702 26.7575 32.613 26.7002L31.7725 25.8598L31.2103 26.422L32.0508 27.2625C32.1652 27.3769 32.1652 27.5624 32.0508 27.6768C31.9935 27.734 31.9186 27.7626 31.8436 27.7626C31.7686 27.7626 31.6937 27.734 31.6365 27.6768L30.796 26.8363L30.4143 27.218L32.7783 29.5821L34.9143 27.4436ZM27.677 31.6363L26.8365 30.7959L27.2199 30.4125L29.5872 32.7769L27.4531 34.9134C27.3982 34.9684 27.3237 34.9993 27.246 34.9993H27.2459C27.1682 34.9993 27.0937 34.9685 27.0387 34.9135L25.0859 32.9608C25.031 32.9058 25.0001 32.8313 25.0001 32.7536C25.0001 32.6759 25.031 32.6014 25.0859 32.5464L25.4457 32.1867L26.2862 33.0272C26.3433 33.0844 26.4183 33.113 26.4933 33.113C26.5683 33.113 26.6432 33.0844 26.7004 33.0272C26.8149 32.9128 26.8149 32.7273 26.7004 32.6129L25.86 31.7724L26.4222 31.2102L27.2627 32.0506C27.3199 32.1078 27.3949 32.1365 27.4698 32.1365C27.5448 32.1365 27.6198 32.1078 27.677 32.0506C27.7914 31.9362 27.7914 31.7507 27.677 31.6363Z" fill="#A36AFF"/>
</svg>
