<svg width="300" height="300" viewBox="0 0 300 300" fill="none" xmlns="http://www.w3.org/2000/svg">
<circle cx="150" cy="150" r="150" fill="white"/>
<rect x="133.773" y="72" width="63.3489" height="11.9849" fill="#2296FF"/>
<rect x="102.955" y="215.819" width="63.3489" height="11.9849" fill="#FFC045"/>
<path d="M104.21 227.804C75.5121 227.804 60.1717 192.926 69.9464 149.902C79.721 106.878 110.909 72 139.607 72C149.975 72 158.599 76.5522 164.926 84.396C174.817 76.5522 185.509 72 195.877 72C218.357 72 232.641 93.4008 233.077 123.354H176.807C176.572 107.215 172.317 93.5595 164.926 84.396C147.439 98.264 132.46 122.421 126.216 149.902C119.973 177.383 123.976 201.54 135.161 215.408C146.662 206.287 157.078 192.716 164.638 176.676H220.908C206.847 206.511 182.903 227.804 160.48 227.804C150.112 227.804 141.488 223.252 135.161 215.408C125.271 223.252 114.578 227.804 104.21 227.804Z" fill="#FFC045"/>
<path d="M176.807 123.354C176.572 107.215 172.317 93.5595 164.926 84.396C174.817 76.5522 185.509 72 195.877 72C218.357 72 232.641 93.4008 233.077 123.354H176.807Z" fill="#FF255A"/>
<path d="M69.9464 149.902C60.1717 192.926 75.512 227.804 104.21 227.804C114.578 227.804 125.271 223.252 135.161 215.408C123.976 201.54 119.973 177.383 126.216 149.902C132.46 122.421 147.439 98.2641 164.926 84.3961C158.599 76.5522 149.975 72 139.607 72C110.909 72 79.721 106.878 69.9464 149.902Z" fill="#2296FF"/>
</svg>
