<svg width="50" height="50" viewBox="0 0 50 50" fill="none" xmlns="http://www.w3.org/2000/svg">
<rect width="50" height="50" rx="10" fill="url(#paint0_linear)"/>
<path fill-rule="evenodd" clip-rule="evenodd" d="M29.4856 11.8055C28.4654 11.8055 27.6383 12.6326 27.6383 13.6528V16.1463C30.6174 17.0329 32.9665 19.3821 33.8531 22.3611H36.3467C37.3669 22.3611 38.1939 21.5341 38.1939 20.5139V13.6528C38.1939 12.6326 37.3669 11.8055 36.3467 11.8055H29.4856ZM27.6383 33.8536C30.6174 32.967 32.9665 30.6179 33.8531 27.6389H36.3467C37.3669 27.6389 38.1939 28.4659 38.1939 29.4861V36.3472C38.1939 37.3674 37.3669 38.1944 36.3467 38.1944H29.4856C28.4654 38.1944 27.6383 37.3674 27.6383 36.3472V33.8536ZM16.1458 27.6389C17.0323 30.6173 19.3807 32.9662 22.3589 33.8531V36.3472C22.3589 37.3674 21.5319 38.1944 20.5117 38.1944H13.6506C12.6304 38.1944 11.8034 37.3674 11.8034 36.3472V29.4861C11.8034 28.4659 12.6304 27.6389 13.6506 27.6389H16.1458ZM16.1458 22.3612H13.65C12.6298 22.3612 11.8027 21.5341 11.8027 20.5139V13.6528C11.8027 12.6326 12.6298 11.8056 13.65 11.8056H20.5111C21.5313 11.8056 22.3583 12.6326 22.3583 13.6528V16.147C19.3803 17.0341 17.0322 19.3829 16.1458 22.3612Z" fill="white"/>
<path fill-rule="evenodd" clip-rule="evenodd" d="M25.0007 32.9167C29.3729 32.9167 32.9173 29.3722 32.9173 25C32.9173 20.6277 29.3729 17.0833 25.0007 17.0833C20.6284 17.0833 17.084 20.6277 17.084 25C17.084 29.3722 20.6284 32.9167 25.0007 32.9167ZM29.6147 23.7771C30.0014 23.4446 30.0454 22.8614 29.7129 22.4746C29.3803 22.0878 28.7972 22.0439 28.4104 22.3764L23.3587 26.7197L21.7237 24.818C21.3911 24.4313 20.808 24.3873 20.4212 24.7198C20.0344 25.0524 19.9905 25.6355 20.323 26.0223L22.5595 28.6236C22.7318 28.824 22.9714 28.9324 23.216 28.944C23.4441 28.9553 23.6767 28.8825 23.8635 28.7219L29.6147 23.7771Z" fill="white"/>
<defs>
<linearGradient id="paint0_linear" x1="-6.85622e-07" y1="-0.416666" x2="48.75" y2="50" gradientUnits="userSpaceOnUse">
<stop stop-color="#FFC045"/>
<stop offset="1" stop-color="#F19F01"/>
</linearGradient>
</defs>
</svg>
