<svg width="60" height="60" viewBox="0 0 60 60" fill="none" xmlns="http://www.w3.org/2000/svg">
<rect width="60" height="60" rx="12" fill="url(#paint0_linear)"/>
<path fill-rule="evenodd" clip-rule="evenodd" d="M35.3833 14.1667C34.1591 14.1667 33.1667 15.1591 33.1667 16.3834V19.3756C36.7415 20.4396 39.5604 23.2585 40.6244 26.8334H43.6167C44.8409 26.8334 45.8333 25.8409 45.8333 24.6167V16.3834C45.8333 15.1591 44.8409 14.1667 43.6167 14.1667H35.3833ZM33.1667 40.6244C36.7415 39.5604 39.5604 36.7415 40.6244 33.1667H43.6167C44.8409 33.1667 45.8333 34.1591 45.8333 35.3834V43.6167C45.8333 44.8409 44.8409 45.8334 43.6167 45.8334H35.3833C34.1591 45.8334 33.1667 44.8409 33.1667 43.6167V40.6244ZM19.3756 33.1667C20.4396 36.7415 23.2585 39.5604 26.8333 40.6244V43.6167C26.8333 44.8409 25.8409 45.8334 24.6167 45.8334H16.3833C15.1591 45.8334 14.1667 44.8409 14.1667 43.6167V35.3834C14.1667 34.1591 15.1591 33.1667 16.3833 33.1667H19.3756ZM19.3756 26.8334H16.3833C15.1591 26.8334 14.1667 25.8409 14.1667 24.6167V16.3834C14.1667 15.1591 15.1591 14.1667 16.3833 14.1667H24.6167C25.8409 14.1667 26.8333 15.1591 26.8333 16.3834V19.3756C23.2585 20.4396 20.4395 23.2585 19.3756 26.8334Z" fill="white"/>
<path fill-rule="evenodd" clip-rule="evenodd" d="M30 39.5C35.2467 39.5 39.5 35.2467 39.5 30C39.5 24.7533 35.2467 20.5 30 20.5C24.7533 20.5 20.5 24.7533 20.5 30C20.5 35.2467 24.7533 39.5 30 39.5ZM35.5375 28.5326C36.0017 28.1335 36.0544 27.4337 35.6553 26.9696C35.2563 26.5054 34.5565 26.4527 34.0924 26.8518L28.0314 32.0628L26.0701 29.7817C25.6711 29.3175 24.9713 29.2648 24.5071 29.6638C24.043 30.0629 23.9902 30.7627 24.3893 31.2268L27.0641 34.3379L27.0731 34.3485C27.4722 34.8126 28.1719 34.8654 28.6361 34.4663L35.5375 28.5326Z" fill="white"/>
<defs>
<linearGradient id="paint0_linear" x1="-8.22746e-07" y1="-0.5" x2="58.5" y2="60" gradientUnits="userSpaceOnUse">
<stop stop-color="#FFC045"/>
<stop offset="1" stop-color="#F19F01"/>
</linearGradient>
</defs>
</svg>
