<svg width="110" height="110" viewBox="0 0 110 110" fill="none" xmlns="http://www.w3.org/2000/svg">
<circle opacity="0.1" cx="55" cy="55" r="55" fill="#2296FF"/>
<path d="M49 28H31C30.2044 28 29.4413 28.3161 28.8787 28.8787C28.3161 29.4413 28 30.2044 28 31V49C28 49.7957 28.3161 50.5587 28.8787 51.1213C29.4413 51.6839 30.2044 52 31 52H49C49.7957 52 50.5587 51.6839 51.1213 51.1213C51.6839 50.5587 52 49.7957 52 49V31C52 30.2044 51.6839 29.4413 51.1213 28.8787C50.5587 28.3161 49.7957 28 49 28V28ZM79 28H61C60.2044 28 59.4413 28.3161 58.8787 28.8787C58.3161 29.4413 58 30.2044 58 31V49C58 49.7957 58.3161 50.5587 58.8787 51.1213C59.4413 51.6839 60.2044 52 61 52H79C79.7957 52 80.5587 51.6839 81.1213 51.1213C81.6839 50.5587 82 49.7957 82 49V31C82 30.2044 81.6839 29.4413 81.1213 28.8787C80.5587 28.3161 79.7957 28 79 28V28ZM49 58H31C30.2044 58 29.4413 58.3161 28.8787 58.8787C28.3161 59.4413 28 60.2044 28 61V79C28 79.7957 28.3161 80.5587 28.8787 81.1213C29.4413 81.6839 30.2044 82 31 82H49C49.7957 82 50.5587 81.6839 51.1213 81.1213C51.6839 80.5587 52 79.7957 52 79V61C52 60.2044 51.6839 59.4413 51.1213 58.8787C50.5587 58.3161 49.7957 58 49 58ZM73 61H67V67H61V73H67V79H73V73H79V67H73V61Z" fill="#2296FF"/>
</svg>
