<svg width="60" height="60" viewBox="0 0 60 60" fill="none" xmlns="http://www.w3.org/2000/svg">
<rect width="60" height="60" rx="14" fill="#E6F7F8"/>
<rect x="42" y="22" width="5" height="25" rx="2" fill="#28CDB7"/>
<rect x="30" y="30" width="5" height="17" rx="2" fill="#28CDB7"/>
<rect x="20" y="39" width="5" height="8" rx="2" fill="#28CDB7"/>
<g clip-path="url(#clip0)">
<path fill-rule="evenodd" clip-rule="evenodd" d="M27.5924 13.2808C28.7024 12.9952 29.5451 12.984 29.9903 13.0095C30.0561 14.1308 29.8824 17.7739 25.6208 22.0355C24.0297 23.6266 22.5216 24.6526 20.9239 25.571L19.5287 24.1754L20.0679 23.6362L19.3626 22.931L18.8234 23.4705L17.4279 22.075C18.3463 20.4776 19.3723 18.9692 20.9637 17.3781C23.6253 14.7162 26.0375 13.6806 27.5924 13.2808ZM13.9379 26.9291C12.7456 28.1215 13.0296 29.9697 13.0296 29.9697C13.0296 29.9697 14.8777 30.2537 16.0701 29.0613C16.7514 28.4268 16.8818 27.5146 16.1964 26.8028C15.4947 26.095 14.5146 26.2864 13.9379 26.9291ZM18.2852 25.4202L17.5802 24.7151L18.1195 24.1758L16.9234 22.9797C16.7234 23.3457 16.25 24.2325 16.1487 24.4222L16.1331 24.4515L18.5488 26.8672L18.562 26.8602C18.7101 26.7811 19.6427 26.2834 20.0207 26.077L18.8245 24.8808L18.2852 25.4202ZM22.6068 29.0992V27.3578L21.5882 26.3392C23.1817 25.4131 24.6988 24.3646 26.3144 22.7511L25.2189 28.2285L23.4775 29.9699L22.6068 29.0992ZM15.6412 20.3911L16.6598 21.4097C17.5859 19.8162 18.6344 18.2991 20.2479 16.6835L14.7705 17.779L13.0291 19.5204L13.8998 20.3911H15.6412Z" fill="#28CDB7"/>
</g>
<defs>
<clipPath id="clip0">
<rect width="17" height="17" fill="white" transform="translate(13 13)"/>
</clipPath>
</defs>
</svg>
