<svg width="80" height="80" viewBox="0 0 80 80" fill="none" xmlns="http://www.w3.org/2000/svg">
<circle cx="40" cy="40" r="40" fill="#A885FF"/>
<rect x="53" y="30" width="7" height="30" rx="2" fill="white"/>
<rect x="40" y="40" width="7" height="20" rx="2" fill="white"/>
<rect x="27" y="50" width="7" height="10" rx="2" fill="white"/>
<g clip-path="url(#clip0)">
<path fill-rule="evenodd" clip-rule="evenodd" d="M37.1679 20.3303C38.4738 19.9943 39.4652 19.981 39.989 20.0111C40.0664 21.3303 39.8621 25.6162 34.8484 30.6299C32.9765 32.5018 31.2023 33.7088 29.3226 34.7893L27.6812 33.1475L28.3155 32.5131L27.4858 31.6834L26.8515 32.3182L25.2097 30.6764C26.2901 28.7971 27.4972 27.0225 29.3694 25.1506C32.5007 22.0189 35.3386 20.8006 37.1679 20.3303ZM21.1034 36.3871C19.7007 37.7899 20.0348 39.9641 20.0348 39.9641C20.0348 39.9641 22.2091 40.2983 23.6119 38.8955C24.4134 38.149 24.5669 37.0758 23.7605 36.2385C22.9349 35.4058 21.7819 35.6309 21.1034 36.3871ZM26.2169 34.6118L25.3874 33.7823L26.0219 33.1478L24.6147 31.7406C24.3798 32.1708 23.8239 33.212 23.7038 33.4369L23.7036 33.4373L23.7035 33.4375L23.685 33.4722L26.527 36.3142L26.5423 36.306C26.716 36.2133 27.8138 35.6274 28.2586 35.3845L26.8514 33.9773L26.2169 34.6118ZM31.3036 38.9401V36.8914L30.1053 35.693C31.9799 34.6035 33.7648 33.37 35.6655 31.4717L34.3767 37.9158L32.328 39.9645L31.3036 38.9401ZM23.1078 28.6952L24.3062 29.8936C25.3958 28.0189 26.6292 26.234 28.5275 24.3334L22.0835 25.6222L20.0348 27.6709L21.0591 28.6952H23.1078Z" fill="white"/>
</g>
<defs>
<clipPath id="clip0">
<rect width="20" height="20" fill="white" transform="translate(20 20)"/>
</clipPath>
</defs>
</svg>
