<svg width="80" height="80" viewBox="0 0 80 80" fill="none" xmlns="http://www.w3.org/2000/svg">
<circle cx="40" cy="40" r="40" fill="#389DF9"/>
<rect x="53" y="30" width="7" height="30" rx="2" fill="white"/>
<rect x="40" y="40" width="7" height="20" rx="2" fill="white"/>
<rect x="27" y="50" width="7" height="10" rx="2" fill="white"/>
<g clip-path="url(#clip0)">
<path fill-rule="evenodd" clip-rule="evenodd" d="M37.1679 20.3305C38.4738 19.9946 39.4652 19.9813 39.989 20.0114C40.0664 21.3305 39.8621 25.6165 34.8484 30.6302C32.9765 32.502 31.2023 33.7091 29.3226 34.7895L27.6812 33.1477L28.3155 32.5134L27.4858 31.6837L26.8515 32.3184L25.2097 30.6766C26.2901 28.7973 27.4972 27.0227 29.3694 25.1508C32.5007 22.0192 35.3386 20.8008 37.1679 20.3305ZM21.1034 36.3873C19.7007 37.7901 20.0348 39.9644 20.0348 39.9644C20.0348 39.9644 22.2091 40.2985 23.6119 38.8957C24.4134 38.1492 24.5669 37.0761 23.7605 36.2387C22.9349 35.406 21.7819 35.6311 21.1034 36.3873ZM26.2169 34.612L25.3874 33.7825L26.0219 33.148L24.6147 31.7408C24.3798 32.171 23.8239 33.2123 23.7038 33.4371L23.7036 33.4376L23.7035 33.4377L23.685 33.4724L26.527 36.3144L26.5423 36.3062C26.716 36.2136 27.8138 35.6276 28.2586 35.3847L26.8514 33.9775L26.2169 34.612ZM31.3036 38.9404V36.8917L30.1053 35.6933C31.9799 34.6038 33.7648 33.3702 35.6655 31.472L34.3767 37.916L32.328 39.9647L31.3036 38.9404ZM23.1078 28.6955L24.3062 29.8939C25.3958 28.0192 26.6292 26.2343 28.5275 24.3336L22.0835 25.6224L20.0348 27.6711L21.0591 28.6955H23.1078Z" fill="white"/>
</g>
<defs>
<clipPath id="clip0">
<rect width="20" height="20" fill="white" transform="translate(20 20)"/>
</clipPath>
</defs>
</svg>
