<svg width="80" height="80" viewBox="0 0 80 80" fill="none" xmlns="http://www.w3.org/2000/svg">
<circle cx="40" cy="40" r="40" fill="#389DF9"/>
<rect x="20" y="38" width="6" height="10" rx="3" fill="white"/>
<rect x="54" y="38" width="6" height="10" rx="3" fill="white"/>
<path d="M58 40C58 35.2261 56.1036 30.6477 52.7279 27.2721C49.3523 23.8964 44.7739 22 40 22C35.2261 22 30.6477 23.8964 27.2721 27.2721C23.8964 30.6477 22 35.2261 22 40H24.5713C24.5713 35.9081 26.1968 31.9837 29.0903 29.0903C31.9837 26.1968 35.9081 24.5713 40 24.5713C44.0919 24.5713 48.0163 26.1968 50.9097 29.0903C53.8032 31.9837 55.4287 35.9081 55.4287 40H58Z" fill="white"/>
<circle cx="40" cy="48" r="12" fill="white"/>
<path d="M27.3265 58.5919L30.8828 54.1465C30.9487 54.0641 31.0673 54.0471 31.1537 54.1076L35.5991 57.2193C35.7458 57.322 35.6939 57.551 35.5172 57.5805L27.5156 58.9141C27.3346 58.9442 27.2119 58.7351 27.3265 58.5919Z" fill="white"/>
<circle cx="34" cy="48" r="2" fill="#75BDFF"/>
<circle cx="40" cy="48" r="2" fill="#75BDFF"/>
<circle cx="46" cy="48" r="2" fill="#75BDFF"/>
</svg>
